<?xml version="1.0" standalone="no"?>
<!DOCTYPE svg PUBLIC "-//W3C//DTD SVG 1.1//EN" "http://www.w3.org/Graphics/SVG/1.1/DTD/svg11.dtd" >
<svg xmlns="http://www.w3.org/2000/svg" xmlns:xlink="http://www.w3.org/1999/xlink" version="1.1">
<metadata>
Created by FontForge 20150318 at Tue Oct 13 16:11:00 2015
 By uniteet7
Font software Copyright 1997 Adobe Systems Incorporated. Typeface designs Copyright 1997 The Monotype Corporation. All rights reserved. "Twentieth Century" is a trademark of The Monotype Corporation in the United States and/or other countries; "MT" is a trademark of Monotype Imaging, Inc. Registered in U.S. Patent and Trademark Office and may be registered in certain other jurisdictions.
</metadata>
<defs>
<font id="TwCenMTStd" horiz-adv-x="500" >
  <font-face 
    font-family="Tw Cen MT Std"
    font-weight="500"
    font-stretch="normal"
    units-per-em="1000"
    panose-1="2 11 5 2 2 1 4 2 6 3"
    ascent="800"
    descent="-200"
    x-height="403"
    cap-height="622"
    bbox="-183 -232 1053 841"
    underline-thickness="50"
    underline-position="-75"
    stemh="64"
    stemv="85"
    unicode-range="U+0020-FB02"
  />
<missing-glyph 
d="M12 0v665h475v-665h-475zM88 618l162 -243l161 243h-323zM60 575v-484c0 -1 161 242 161 242zM440 575l-162 -242l162 -243v485zM411 48l-161 242l-162 -242h323z" />
    <glyph glyph-name="fi" unicode="fi" 
d="M449 468h-83c-3 60 -39 95 -96 95c-48 0 -91 -48 -91 -101v-58h115v-77h-115v-327h-82v327h-77v77h77v69c0 96 78 172 177 172c50 0 97 -20 131 -57c33 -35 41 -59 44 -120zM367 405h82v-405h-82v405z" />
    <glyph glyph-name="fl" unicode="fl" 
d="M448 0h-82v467c0 53 -41 95 -94 95c-51 0 -94 -48 -94 -104v-55h116v-77h-116v-326h-82v326h-76v77h77v70c0 94 77 171 173 171s178 -74 178 -161v-483z" />
    <glyph glyph-name=".notdef" 
d="M12 0v665h475v-665h-475zM88 618l162 -243l161 243h-323zM60 575v-484c0 -1 161 242 161 242zM440 575l-162 -242l162 -243v485zM411 48l-161 242l-162 -242h323z" />
    <glyph glyph-name=".notdef" 
d="M12 0v665h475v-665h-475zM88 618l162 -243l161 243h-323zM60 575v-484c0 -1 161 242 161 242zM440 575l-162 -242l162 -243v485zM411 48l-161 242l-162 -242h323z" />
    <glyph glyph-name="space" unicode=" " horiz-adv-x="276" 
 />
    <glyph glyph-name="exclam" unicode="!" horiz-adv-x="219" 
d="M66 622h82v-468h-82v468zM109 97c29 0 53 -24 53 -53c0 -30 -24 -53 -53 -53s-53 23 -53 53c0 29 24 53 53 53z" />
    <glyph glyph-name="quotedbl" unicode="&#x22;" horiz-adv-x="355" 
d="M71 462l-25 137v117h101v-117l-23 -137h-53zM232 462l-23 137v117h100v-117l-24 -137h-53z" />
    <glyph glyph-name="numbersign" unicode="#" horiz-adv-x="668" 
d="M44 475h159l42 197h59l-42 -197h206l41 197h60l-42 -197h97v-60h-109l-37 -181h146v-60h-158l-41 -196h-60l42 196h-207l-41 -196h-60l41 196h-96v60h109l38 181h-147v60zM250 415l-38 -180h207l37 180h-206z" />
    <glyph glyph-name="dollar" unicode="$" horiz-adv-x="552" 
d="M261 401v150c-43 -9 -70 -35 -70 -68s26 -64 70 -82zM305 282v-211c59 7 95 43 95 96c0 48 -33 87 -95 115zM261 718h44v-75c50 -8 78 -18 112 -38c25 -15 35 -25 57 -53l-69 -55c-29 37 -56 52 -100 56v-172c72 -33 95 -47 120 -71c40 -39 65 -93 65 -144
c0 -71 -39 -133 -103 -164c-24 -12 -41 -16 -82 -21v-95h-44v95c-65 13 -99 30 -137 72c-24 27 -36 47 -59 98l88 23c30 -65 55 -88 108 -99v227c-58 24 -80 38 -107 64c-35 34 -51 73 -51 118c0 54 29 101 81 132c22 13 38 19 77 27v75z" />
    <glyph glyph-name="percent" unicode="%" horiz-adv-x="833" 
d="M171 577c-51 0 -76 -37 -76 -114c0 -70 26 -110 73 -110c50 0 72 36 72 116c0 70 -24 108 -69 108zM169 642c87 0 139 -68 139 -179c0 -107 -53 -174 -139 -174c-87 0 -140 67 -140 175c0 109 54 178 140 178zM606 642h64l-436 -686h-65zM667 244c-48 0 -74 -37 -74 -105
c0 -84 21 -120 72 -120c48 0 72 37 72 111c0 75 -24 114 -70 114zM668 308c82 0 135 -68 135 -172c0 -115 -50 -180 -138 -180c-83 0 -137 64 -137 165c0 121 50 187 140 187z" />
    <glyph glyph-name="ampersand" unicode="&#x26;" horiz-adv-x="667" 
d="M267 396c65 45 86 70 86 101c0 40 -29 66 -75 66c-43 0 -74 -26 -74 -62c0 -26 22 -62 63 -105zM400 139l-146 155c-71 -47 -92 -64 -109 -86c-12 -16 -18 -32 -18 -49c0 -55 56 -100 124 -100c48 0 85 20 149 80zM324 337l130 -138l70 77l60 -54l-74 -83l131 -138h-111
l-74 78c-39 -35 -54 -48 -82 -65c-41 -24 -82 -36 -123 -36c-115 0 -211 82 -211 180c0 40 12 72 34 97c30 31 40 39 122 97c-7 10 -9 13 -16 22c-47 60 -57 82 -59 126c5 85 70 144 160 144c85 0 152 -65 152 -147c0 -34 -11 -65 -35 -95c-19 -24 -34 -37 -74 -65z" />
    <glyph glyph-name="quoteright" unicode="&#x2019;" horiz-adv-x="219" 
d="M52 634h110v-113c0 -45 -26 -99 -65 -134l-39 37c34 35 47 61 49 100h-55v110z" />
    <glyph glyph-name="parenleft" unicode="(" horiz-adv-x="271" 
d="M153 642l68 -31c-43 -86 -57 -122 -73 -184c-14 -57 -20 -113 -20 -184c0 -82 6 -147 20 -206c14 -62 27 -99 69 -191l-64 -36c-42 86 -56 122 -74 195c-17 70 -26 141 -26 216c0 86 7 155 23 220c16 70 31 109 77 201z" />
    <glyph glyph-name="parenright" unicode=")" horiz-adv-x="271" 
d="M43 611l67 31c39 -71 52 -101 71 -170c22 -81 33 -165 33 -250c0 -65 -8 -133 -24 -205c-20 -83 -33 -120 -75 -210l-67 36c50 117 62 152 75 213c10 49 15 105 15 174c0 80 -7 146 -23 207c-16 62 -30 95 -72 174z" />
    <glyph glyph-name="asterisk" unicode="*" horiz-adv-x="438" 
d="M229 528l15 -8c19 14 31 24 53 50c9 11 10 12 16 19c17 15 28 20 43 20c23 0 40 -17 40 -40c0 -28 -17 -40 -72 -49c-37 -7 -45 -9 -69 -20l-1 -16c30 -13 40 -16 75 -22c50 -7 67 -20 67 -49c0 -22 -18 -40 -41 -40c-18 0 -32 10 -57 40c-27 32 -37 42 -55 52l-14 -7
c2 -25 3 -31 16 -65c9 -25 13 -41 13 -52c0 -27 -16 -45 -40 -45s-41 19 -41 44c0 10 3 23 13 49c12 34 15 47 16 69l-13 7c-21 -17 -33 -29 -56 -56c-21 -26 -37 -37 -55 -37c-21 0 -40 19 -40 40c0 29 23 45 73 53c33 5 41 7 66 20l1 15c-27 12 -36 14 -68 19
c-36 6 -42 8 -62 24c-8 8 -10 16 -10 26c0 23 17 42 38 42c20 0 32 -8 55 -36c23 -26 31 -34 58 -54l13 8c-2 26 -4 34 -16 68c-9 23 -13 37 -13 48c0 24 17 42 40 42c24 0 41 -17 41 -42c0 -9 -3 -23 -12 -47c-12 -35 -15 -48 -17 -70z" />
    <glyph glyph-name="plus" unicode="+" horiz-adv-x="667" 
d="M67 355h233v234h64v-234h235v-64h-235v-232h-64v232h-233v64z" />
    <glyph glyph-name="comma" unicode="," horiz-adv-x="219" 
d="M99 123l105 -41l-115 -250l-76 30z" />
    <glyph glyph-name="hyphen" unicode="-" horiz-adv-x="333" 
d="M53 243h227v-83h-227v83z" />
    <glyph glyph-name="hyphen" unicode="&#xad;" horiz-adv-x="333" 
d="M53 243h227v-83h-227v83z" />
    <glyph glyph-name="period" unicode="." horiz-adv-x="219" 
d="M108 123c36 0 66 -30 66 -66c0 -37 -30 -66 -66 -66c-37 0 -66 29 -66 66c0 36 29 66 66 66z" />
    <glyph glyph-name="slash" unicode="/" 
d="M433 725h56l-405 -945h-58z" />
    <glyph glyph-name="zero" unicode="0" horiz-adv-x="552" 
d="M275 554c-88 0 -147 -98 -147 -244c0 -145 60 -241 149 -241c85 0 144 99 144 244c0 140 -61 241 -146 241zM279 643c139 -7 231 -138 231 -331c0 -115 -30 -205 -89 -266c-47 -47 -89 -67 -146 -67c-136 0 -234 138 -234 328c0 143 44 248 129 305c31 20 68 31 104 31h5
z" />
    <glyph glyph-name="one" unicode="1" horiz-adv-x="552" 
d="M158 620h162v-620h-84v538h-106z" />
    <glyph glyph-name="two" unicode="2" horiz-adv-x="552" 
d="M241 83h237v-83h-425l317 337c24 26 36 53 36 86c0 74 -58 136 -126 136c-31 0 -61 -11 -85 -32s-32 -37 -42 -78h-82c10 65 28 102 68 139c39 36 89 55 146 55c110 0 203 -99 203 -216c0 -58 -20 -102 -70 -155z" />
    <glyph glyph-name="three" unicode="3" horiz-adv-x="552" 
d="M169 482h-91c7 53 22 83 54 113c34 31 82 48 136 48c115 0 200 -73 200 -173c0 -61 -32 -109 -94 -141c35 -18 48 -28 66 -47c29 -31 44 -69 44 -109c0 -105 -92 -193 -202 -193c-78 0 -141 28 -182 79c-19 25 -28 45 -40 93h93c20 -65 62 -97 124 -97
c64 0 119 51 119 110c0 34 -14 66 -39 90s-48 31 -101 34v77c74 1 122 40 122 98s-46 104 -104 104c-54 0 -84 -25 -105 -86z" />
    <glyph glyph-name="four" unicode="4" horiz-adv-x="552" 
d="M359 443l-198 -248h200v248h-2zM437 641v-446h60v-73h-60v-122h-76v122h-349z" />
    <glyph glyph-name="five" unicode="5" horiz-adv-x="552" 
d="M197 623h280v-84h-215l-33 -119c20 2 32 4 43 4c110 0 204 -101 204 -219c0 -126 -105 -225 -239 -225c-56 0 -105 16 -147 48c-22 17 -34 30 -59 63l76 48c41 -50 80 -70 133 -70c85 0 147 59 147 140c0 79 -65 139 -149 139c-46 0 -77 -13 -127 -56z" />
    <glyph glyph-name="six" unicode="6" horiz-adv-x="552" 
d="M275 345c-75 0 -139 -64 -139 -139c0 -77 61 -137 139 -137c76 0 137 60 137 137c0 76 -63 139 -137 139zM312 656l65 -45l-137 -200c9 1 17 2 24 2c7 1 13 1 18 1c117 0 219 -96 219 -205c0 -129 -99 -230 -225 -230s-228 100 -228 224c0 45 16 94 42 132z" />
    <glyph glyph-name="seven" unicode="7" horiz-adv-x="552" 
d="M26 624h513l-438 -654l-65 43l352 529h-362v82z" />
    <glyph glyph-name="eight" unicode="8" horiz-adv-x="552" 
d="M274 569c-59 0 -107 -47 -107 -106s48 -106 107 -106s107 47 107 106s-48 106 -107 106zM272 283c-69 0 -122 -50 -122 -116c0 -65 55 -113 129 -113c68 0 122 50 122 115c0 63 -58 114 -129 114zM395 322c27 -17 38 -25 52 -42c28 -33 43 -72 43 -113
c0 -104 -95 -187 -214 -187c-121 0 -215 82 -215 187c0 40 13 77 39 109c15 18 25 27 52 46c-53 46 -74 85 -74 143c0 96 90 178 196 178s196 -81 196 -176c0 -58 -22 -100 -75 -145z" />
    <glyph glyph-name="nine" unicode="9" horiz-adv-x="552" 
d="M277 556c-80 0 -140 -61 -140 -142c0 -75 65 -135 145 -135c74 0 132 60 132 137s-62 140 -137 140zM240 -32l-66 46l137 199c-22 -3 -32 -4 -44 -4c-123 0 -217 93 -217 216c0 118 105 220 227 220c120 0 225 -104 225 -223c0 -49 -15 -94 -46 -139z" />
    <glyph glyph-name="colon" unicode=":" horiz-adv-x="219" 
d="M108 339c36 0 66 -29 66 -66s-29 -66 -66 -66s-66 29 -66 66s29 66 66 66zM108 125c36 0 66 -30 66 -67c0 -36 -30 -66 -66 -66c-37 0 -66 30 -66 66c0 37 29 67 66 67z" />
    <glyph glyph-name="semicolon" unicode=";" horiz-adv-x="271" 
d="M124 125l105 -42l-119 -250l-75 32zM158 341c37 0 66 -30 66 -66c0 -37 -29 -67 -66 -67s-66 30 -66 67c0 36 29 66 66 66z" />
    <glyph glyph-name="semicolon" unicode="&#x37e;" horiz-adv-x="271" 
d="M124 125l105 -42l-119 -250l-75 32zM158 341c37 0 66 -30 66 -66c0 -37 -29 -67 -66 -67s-66 30 -66 67c0 36 29 66 66 66z" />
    <glyph glyph-name="less" unicode="&#x3c;" horiz-adv-x="667" 
d="M598 72l-529 223v58l529 223v-70l-443 -182l443 -183v-69z" />
    <glyph glyph-name="equal" unicode="=" horiz-adv-x="667" 
d="M68 472h531v-65h-531v65zM68 243h531v-64h-531v64z" />
    <glyph glyph-name="greater" unicode="&#x3e;" horiz-adv-x="667" 
d="M68 576l530 -224v-57l-530 -223v69l444 182l-444 183v70z" />
    <glyph glyph-name="question" unicode="?" horiz-adv-x="385" 
d="M248 290h83c-11 -54 -26 -83 -58 -111c-26 -23 -59 -35 -95 -35c-76 0 -128 49 -128 118c0 34 13 65 38 89c15 15 38 29 78 48c46 21 54 26 78 47c15 17 23 33 23 49c0 37 -34 68 -75 68c-51 0 -81 -33 -88 -96h-80c8 69 23 105 58 137c27 26 64 39 104 39
c92 0 163 -63 163 -144c0 -41 -15 -78 -44 -107c-21 -21 -54 -41 -104 -65c-53 -25 -73 -42 -73 -64s20 -37 51 -37c35 0 56 20 69 64zM193 97c29 0 53 -24 53 -53s-24 -53 -53 -53c-30 0 -54 24 -54 53s24 53 54 53z" />
    <glyph glyph-name="at" unicode="@" horiz-adv-x="1015" 
d="M893 9h88c-20 -42 -57 -84 -106 -121c-90 -68 -190 -98 -325 -98c-307 0 -493 166 -493 439c0 178 86 346 219 430c72 46 163 70 264 70c155 0 279 -60 354 -172c42 -61 64 -131 64 -201c0 -100 -31 -182 -97 -256c-23 -26 -49 -48 -76 -66c-36 -23 -79 -36 -118 -36
c-67 0 -92 21 -97 82c-45 -51 -99 -81 -148 -81c-103 0 -179 93 -179 221c0 70 29 151 77 212s114 97 176 97c60 0 112 -32 148 -90l16 76h88l-78 -362c-6 -28 -7 -34 -7 -42c0 -18 16 -32 35 -32c21 0 63 23 93 51c59 56 94 138 94 220c0 177 -149 308 -350 308
c-234 0 -406 -179 -406 -421c0 -237 155 -375 423 -375c103 0 182 21 255 67c45 28 59 41 86 80zM333 212c0 -84 44 -141 108 -141c40 0 90 32 123 80c32 45 52 108 52 164c0 87 -45 142 -115 142c-86 0 -168 -120 -168 -245z" />
    <glyph glyph-name="A" unicode="A" horiz-adv-x="604" 
d="M297 451l-100 -221h200zM297 646l294 -646h-89l-73 159h-264l-71 -159h-88z" />
    <glyph glyph-name="B" unicode="B" 
d="M161 547v-184c92 1 145 36 145 98c0 53 -48 87 -124 87c-5 0 -12 0 -21 -1zM161 289v-213h7c57 0 87 4 116 16c45 19 74 54 74 91c0 65 -64 106 -168 106h-29zM77 622h99c129 0 220 -62 220 -149c0 -54 -28 -94 -91 -131c51 -19 70 -30 95 -52c31 -29 46 -66 46 -111
c0 -108 -105 -179 -267 -179h-102v622z" />
    <glyph glyph-name="C" unicode="C" horiz-adv-x="604" 
d="M568 601v-96c-73 35 -125 49 -185 49c-145 0 -257 -105 -257 -242c0 -140 114 -243 266 -243c58 0 107 14 176 52v-97c-62 -32 -112 -45 -183 -45c-194 0 -350 149 -350 334c0 182 154 329 344 329c64 0 116 -11 189 -41z" />
    <glyph glyph-name="D" unicode="D" horiz-adv-x="604" 
d="M151 539v-455h5c102 0 148 5 193 24c83 35 134 112 134 203s-55 174 -136 207c-36 15 -81 21 -153 21h-43zM66 622h151c118 0 200 -29 263 -91c57 -56 91 -139 91 -220c0 -122 -74 -234 -187 -282c-46 -19 -102 -29 -166 -29h-152v622z" />
    <glyph glyph-name="E" unicode="E" horiz-adv-x="438" 
d="M58 622h345v-85h-261v-155h261v-84h-261v-214h261v-84h-345v622z" />
    <glyph glyph-name="F" unicode="F" horiz-adv-x="438" 
d="M58 622h345v-85h-261v-155h261v-84h-260v-298h-85v622z" />
    <glyph glyph-name="G" unicode="G" horiz-adv-x="771" 
d="M666 523l-63 -62c-29 27 -42 37 -66 51c-48 28 -100 42 -154 42c-147 0 -255 -105 -255 -246c0 -59 26 -121 69 -165c51 -51 114 -75 196 -75c122 0 204 57 234 162h-168v85h265c0 -71 -3 -96 -22 -142c-15 -39 -39 -75 -71 -106c-63 -62 -132 -88 -240 -88
c-105 0 -192 34 -257 101c-60 61 -96 147 -96 232c0 184 149 330 336 330c59 0 111 -9 158 -28c51 -21 77 -39 134 -91z" />
    <glyph glyph-name="H" unicode="H" horiz-adv-x="604" 
d="M68 622h85v-239h297v239h84v-622h-84v299h-297v-299h-85v622z" />
    <glyph glyph-name="I" unicode="I" horiz-adv-x="219" 
d="M64 622h84v-622h-84v622z" />
    <glyph glyph-name="J" unicode="J" horiz-adv-x="385" 
d="M210 621h85v-456c0 -122 -53 -186 -155 -186c-40 0 -63 6 -106 28l42 69c33 -11 47 -14 67 -14c44 0 67 31 67 90v469z" />
    <glyph glyph-name="K" unicode="K" horiz-adv-x="552" 
d="M65 622h85v-253l263 253h119l-300 -289l302 -333h-108l-276 303v-303h-85v622z" />
    <glyph glyph-name="L" unicode="L" horiz-adv-x="385" 
d="M77 622h84v-538h203v-84h-287v622z" />
    <glyph glyph-name="M" unicode="M" horiz-adv-x="771" 
d="M578 648l170 -648h-83l-103 396h-2l-175 -420l-176 423h-2l-104 -399h-83l170 648l195 -464z" />
    <glyph glyph-name="N" unicode="N" horiz-adv-x="667" 
d="M60 647l460 -473v448h85v-651l-460 471v-442h-85v647z" />
    <glyph glyph-name="O" unicode="O" horiz-adv-x="771" 
d="M378 555c-138 0 -250 -109 -250 -244c0 -137 114 -243 260 -243c135 0 247 110 247 243c0 138 -112 244 -257 244zM385 642c186 0 340 -148 340 -327c0 -189 -150 -336 -343 -336c-191 0 -343 149 -343 336c0 181 155 327 346 327z" />
    <glyph glyph-name="P" unicode="P" 
d="M169 548v-218c131 2 188 36 188 111c0 42 -23 75 -63 91c-31 12 -59 16 -125 16zM85 622h125c141 0 236 -72 236 -179c0 -72 -44 -132 -120 -163c-40 -17 -79 -23 -157 -24v-256h-84v622z" />
    <glyph glyph-name="Q" unicode="Q" horiz-adv-x="771" 
d="M486 89l-137 146h111l96 -102c23 23 31 33 43 52c24 38 36 80 36 127c0 138 -111 243 -257 243c-139 0 -250 -108 -250 -244s113 -243 257 -243c33 0 54 4 101 21zM617 68l98 -106h-111l-55 58c-66 -30 -112 -41 -168 -41c-192 0 -343 149 -343 336
c0 181 154 327 345 327c187 0 342 -146 342 -324c0 -69 -17 -130 -52 -184c-16 -25 -27 -38 -56 -66z" />
    <glyph glyph-name="R" unicode="R" 
d="M163 547v-217c65 1 93 4 122 16c43 17 66 50 66 93c0 44 -22 77 -63 93c-31 12 -59 15 -125 15zM78 622h135c134 0 227 -73 227 -178c0 -54 -23 -100 -65 -133c-28 -22 -50 -31 -104 -45l181 -266h-97l-173 256h-19v-256h-85v622z" />
    <glyph glyph-name="S" unicode="S" 
d="M445 553l-69 -55c-45 46 -66 56 -114 56c-61 0 -103 -30 -103 -74c0 -37 29 -63 109 -97c73 -31 89 -41 137 -83c37 -39 55 -84 55 -134c0 -104 -86 -187 -193 -187c-68 0 -125 24 -171 72c-26 28 -38 48 -59 99l85 24c33 -73 76 -105 142 -105c62 0 108 41 108 98
c0 26 -14 55 -38 78c-19 19 -42 32 -93 53c-65 26 -79 34 -121 71c-34 36 -49 71 -49 112c0 90 82 161 184 161c39 0 81 -10 117 -29c32 -16 45 -27 73 -60z" />
    <glyph glyph-name="T" unicode="T" horiz-adv-x="438" 
d="M27 622h380v-85h-148v-537h-84v537h-148v85z" />
    <glyph glyph-name="U" unicode="U" horiz-adv-x="604" 
d="M62 621h85v-382c0 -113 56 -178 156 -178s157 60 157 163v397h85v-391c0 -153 -94 -251 -239 -251c-74 0 -127 20 -171 64c-52 52 -73 111 -73 210v368z" />
    <glyph glyph-name="V" unicode="V" horiz-adv-x="604" 
d="M13 621h90l195 -440l196 440h91l-288 -642z" />
    <glyph glyph-name="W" unicode="W" horiz-adv-x="1000" 
d="M499 646l200 -459l188 434h88l-276 -640l-200 460l-200 -460l-276 640h88l189 -438z" />
    <glyph glyph-name="X" unicode="X" horiz-adv-x="552" 
d="M41 622h94l139 -227l137 227h95l-185 -304l190 -318h-94l-143 239l-145 -239h-95l192 318z" />
    <glyph glyph-name="Y" unicode="Y" horiz-adv-x="552" 
d="M28 622h94l153 -250l151 250h94l-204 -337v-285h-85v284z" />
    <glyph glyph-name="Z" unicode="Z" 
d="M47 622h420l-297 -538h291v-84h-429l295 537h-280v85z" />
    <glyph glyph-name="bracketleft" unicode="[" horiz-adv-x="271" 
d="M65 632h180v-61h-112v-668h112v-61h-180v790z" />
    <glyph glyph-name="backslash" unicode="\" 
d="M33 724h55l406 -944h-55z" />
    <glyph glyph-name="bracketright" unicode="]" horiz-adv-x="271" 
d="M16 632h181v-790h-179v61h111v668h-113v61z" />
    <glyph glyph-name="asciicircum" unicode="^" horiz-adv-x="469" 
d="M116 337h-90l173 391h71l173 -391h-89l-120 292z" />
    <glyph glyph-name="underscore" unicode="_" 
d="M-7 -124v50h514v-50h-514z" />
    <glyph glyph-name="quoteleft" unicode="&#x2018;" horiz-adv-x="219" 
d="M118 641l40 -39c-31 -29 -44 -54 -48 -97h55v-111h-111v110c0 42 26 97 64 137z" />
    <glyph glyph-name="a" unicode="a" horiz-adv-x="552" 
d="M273 334c-72 0 -134 -60 -134 -131c0 -76 59 -137 134 -137c74 0 134 61 134 134c0 74 -60 134 -134 134zM396 321v82h85v-403h-85v80h-2c-20 -29 -30 -39 -48 -54c-31 -24 -66 -37 -104 -37c-107 0 -192 95 -192 214c0 113 87 211 190 211c40 0 79 -14 111 -41
c18 -14 27 -24 43 -52h2z" />
    <glyph glyph-name="b" unicode="b" horiz-adv-x="552" 
d="M277 337c-73 0 -134 -61 -134 -134c0 -76 60 -134 138 -134c71 0 131 60 131 134s-60 134 -135 134zM70 634h84v-311h2c19 31 29 42 48 57c30 23 64 34 105 34c105 0 193 -96 193 -211s-87 -214 -188 -214c-44 0 -84 15 -117 44c-18 14 -26 25 -41 52h-2v-85h-84v634z
" />
    <glyph glyph-name="c" unicode="c" horiz-adv-x="385" 
d="M359 123v-97c-51 -28 -81 -37 -126 -37c-112 0 -209 97 -209 208c0 125 93 217 219 217c40 0 72 -8 116 -29v-95c-42 27 -85 41 -121 41c-71 0 -132 -57 -132 -124c0 -75 56 -133 128 -133c39 0 74 14 125 49z" />
    <glyph glyph-name="d" unicode="d" horiz-adv-x="552" 
d="M270 336c-76 0 -135 -59 -135 -134c0 -72 62 -134 133 -134c76 0 136 59 136 134c0 73 -61 134 -134 134zM394 634h84v-634h-83v84h-2c-40 -65 -90 -95 -155 -95c-106 0 -191 96 -191 214c0 116 87 211 193 211c39 0 75 -13 106 -39c19 -15 29 -26 46 -56h2v315z" />
    <glyph glyph-name="e" unicode="e" 
d="M124 253h246c-27 55 -68 83 -121 83c-57 0 -101 -29 -125 -83zM459 185h-344c9 -43 21 -65 46 -86s58 -33 92 -33c51 0 85 17 121 60l62 -47c-17 -22 -25 -30 -41 -43c-40 -30 -90 -47 -146 -47c-120 0 -211 92 -211 214c0 116 95 211 211 211c88 -1 163 -53 195 -137
c11 -29 14 -47 15 -92z" />
    <glyph glyph-name="f" unicode="f" horiz-adv-x="333" 
d="M300 628v-86c-27 18 -46 25 -64 25c-30 0 -48 -23 -48 -63v-101h112v-78h-112v-325h-85v325h-74v78h74v95c0 92 51 151 130 151c23 0 37 -5 67 -21z" />
    <glyph glyph-name="g" unicode="g" horiz-adv-x="552" 
d="M267 335c-71 0 -134 -61 -134 -131c0 -75 61 -137 135 -137c75 0 136 60 136 135c0 76 -59 133 -137 133zM392 318v85h83v-387c0 -114 -89 -205 -201 -205c-61 0 -115 24 -154 67c-18 20 -26 35 -41 72h88c29 -46 61 -65 110 -65c64 0 115 52 115 117v76h-2
c-41 -61 -90 -89 -153 -89c-104 0 -192 98 -192 214s85 211 189 211c41 0 80 -14 112 -41c18 -15 27 -26 44 -55h2z" />
    <glyph glyph-name="h" unicode="h" horiz-adv-x="438" 
d="M38 634h85v-297c51 58 85 77 140 77c69 0 126 -60 126 -133v-281h-85v257c0 51 -28 84 -70 84c-62 0 -111 -53 -111 -119v-222h-85v634z" />
    <glyph glyph-name="i" unicode="i" horiz-adv-x="219" 
d="M65 403h84v-403h-84v403zM107 600c35 0 65 -29 65 -65s-30 -65 -65 -65c-36 0 -66 29 -66 65s30 65 66 65z" />
    <glyph glyph-name="j" unicode="j" horiz-adv-x="219" 
d="M66 403h85v-592h-85v592zM108 600c36 0 66 -30 66 -66s-30 -66 -66 -66s-66 30 -66 66s30 66 66 66z" />
    <glyph glyph-name="k" unicode="k" horiz-adv-x="438" 
d="M52 634h84v-408l167 177h110l-174 -186l176 -217h-105l-172 213h-2v-213h-84v634z" />
    <glyph glyph-name="l" unicode="l" horiz-adv-x="219" 
d="M69 634h85v-634h-85v634z" />
    <glyph glyph-name="m" unicode="m" horiz-adv-x="667" 
d="M133 403v-62h2c39 53 72 73 117 73c59 0 91 -23 116 -84c45 61 80 84 130 84c64 0 117 -55 117 -121v-293h-84v271c0 44 -23 67 -66 67c-51 0 -90 -52 -90 -119v-219h-85v260c0 51 -23 79 -65 79c-52 0 -92 -49 -92 -112v-227h-84v403h84z" />
    <glyph glyph-name="n" unicode="n" horiz-adv-x="438" 
d="M124 403v-67c53 58 87 78 133 78c73 0 132 -55 132 -123v-291h-85v266c0 44 -31 76 -75 76c-57 0 -104 -55 -104 -123v-219h-84v403h83z" />
    <glyph glyph-name="o" unicode="o" 
d="M252 330c-74 0 -135 -58 -135 -130c0 -68 62 -127 135 -127c71 0 132 61 132 130s-60 127 -132 127zM249 414c117 0 217 -98 217 -211c0 -114 -99 -214 -211 -214c-120 0 -221 98 -221 214c0 111 102 211 215 211z" />
    <glyph glyph-name="p" unicode="p" horiz-adv-x="552" 
d="M276 336c-74 0 -136 -61 -136 -133c0 -74 61 -136 134 -136c75 0 136 61 136 136c0 72 -62 133 -134 133zM152 403v-81h2c41 63 89 92 154 92c105 0 191 -95 191 -211c0 -117 -88 -214 -192 -214c-40 0 -77 14 -109 39c-18 15 -27 25 -43 52h-2v-269h-85v592h84z" />
    <glyph glyph-name="q" unicode="q" horiz-adv-x="552" 
d="M267 335c-71 0 -131 -61 -131 -135c0 -72 62 -133 135 -133c75 0 134 60 134 136c0 72 -62 132 -138 132zM394 320v83h84v-592h-84v268h-2c-20 -28 -29 -38 -47 -52c-30 -25 -65 -38 -105 -38c-105 0 -193 97 -193 212s88 213 192 213c39 0 76 -14 108 -40
c20 -15 29 -26 45 -54h2z" />
    <glyph glyph-name="r" unicode="r" horiz-adv-x="333" 
d="M151 403v-83h2c38 70 69 94 124 94c12 0 19 -2 35 -6l-26 -85c-15 3 -24 5 -32 5c-58 0 -101 -45 -101 -105v-223h-85v403h83z" />
    <glyph glyph-name="s" unicode="s" horiz-adv-x="333" 
d="M300 355l-57 -50c-36 26 -51 32 -76 32c-33 0 -52 -14 -52 -38c0 -20 19 -35 68 -54c85 -33 121 -72 121 -130c0 -68 -64 -126 -139 -126c-58 0 -103 26 -140 79l67 32c21 -21 50 -34 73 -34c35 0 66 22 66 48c0 24 -22 42 -77 63c-82 32 -115 66 -115 120
c0 67 56 117 133 117c40 0 77 -17 128 -59z" />
    <glyph glyph-name="t" unicode="t" horiz-adv-x="271" 
d="M84 520h85v-117h84v-78h-84v-325h-85v325h-67v79h67v116z" />
    <glyph glyph-name="u" unicode="u" horiz-adv-x="438" 
d="M42 403h85v-227c0 -69 31 -105 92 -105c55 0 89 39 89 105v227h84v-241c0 -101 -73 -173 -175 -173c-105 0 -175 71 -175 176v238z" />
    <glyph glyph-name="v" unicode="v" horiz-adv-x="438" 
d="M15 403h89l115 -233l112 233h90l-203 -418z" />
    <glyph glyph-name="w" unicode="w" horiz-adv-x="667" 
d="M332 420l113 -267l119 250h74l-198 -414l-108 256l-108 -253l-197 411h74l119 -247z" />
    <glyph glyph-name="x" unicode="x" 
d="M57 403h103l90 -115l88 115h102l-140 -182l169 -221h-101l-119 154l-120 -154h-100l170 221z" />
    <glyph glyph-name="y" unicode="y" 
d="M31 403h96l146 -219l101 219h88l-272 -592h-89l133 288z" />
    <glyph glyph-name="z" unicode="z" horiz-adv-x="438" 
d="M25 403h381l-243 -329h241v-74h-384l245 329h-240v74z" />
    <glyph glyph-name="braceleft" unicode="{" horiz-adv-x="334" 
d="M28 197v80c23 0 33 3 47 11c44 24 54 56 54 178c1 133 5 159 34 196c25 34 54 44 121 44h27v-76h-15c-70 0 -84 -18 -84 -101v-72c0 -102 -15 -156 -53 -190c-16 -13 -23 -18 -49 -30c76 -32 102 -88 102 -221v-71c0 -84 14 -101 84 -101h15v-76h-27
c-67 0 -97 11 -121 44c-29 38 -33 63 -34 196c0 122 -10 154 -54 178c-14 8 -24 11 -47 11z" />
    <glyph glyph-name="bar" unicode="|" horiz-adv-x="527" 
d="M231 696h65v-831h-65v831z" />
    <glyph glyph-name="braceright" unicode="}" horiz-adv-x="334" 
d="M306 277v-80c-23 0 -33 -3 -47 -11c-44 -24 -54 -56 -54 -178c-1 -133 -5 -159 -34 -196c-25 -34 -54 -44 -121 -44h-27v76h15c70 0 84 18 84 101v71c0 133 26 189 102 221c-46 22 -68 43 -82 78c-14 37 -20 77 -20 142v72c0 83 -14 101 -84 101h-15v76h27
c67 0 97 -11 121 -44c29 -38 33 -63 34 -196c0 -122 10 -154 54 -178c14 -8 24 -11 47 -11z" />
    <glyph glyph-name="asciitilde" unicode="~" horiz-adv-x="656" 
d="M592 413v-71c-49 -41 -97 -62 -139 -62c-41 0 -65 8 -155 51c-42 20 -69 28 -92 28c-42 0 -87 -21 -142 -67v70c47 38 101 61 143 61c37 0 68 -10 144 -47c47 -22 76 -32 100 -32c45 0 84 19 141 69z" />
    <glyph glyph-name="exclamdown" unicode="&#xa1;" horiz-adv-x="219" 
d="M110 550c29 0 53 -24 53 -53c0 -30 -24 -54 -53 -54s-53 24 -53 54c0 29 24 53 53 53zM69 385h83v-467h-83v467z" />
    <glyph glyph-name="cent" unicode="&#xa2;" horiz-adv-x="438" 
d="M175 106l78 219c-71 -3 -125 -58 -125 -127c0 -39 11 -59 47 -92zM344 584h43l-61 -177c24 -7 44 -16 70 -34v-107c-38 32 -64 46 -101 56l-82 -235c22 -5 32 -6 44 -6c44 0 89 15 138 45v-101c-53 -26 -85 -34 -132 -34c-27 0 -42 3 -80 13l-66 -185h-44l72 203
c-62 45 -84 71 -98 119c-6 18 -9 38 -9 58c0 120 98 215 222 215h24z" />
    <glyph glyph-name="sterling" unicode="&#xa3;" horiz-adv-x="552" 
d="M179 80c-26 16 -43 22 -59 22c-21 0 -36 -15 -36 -34s15 -34 34 -34c20 0 39 14 61 46zM476 482h-90c-5 60 -29 89 -73 89s-71 -32 -71 -83c0 -25 4 -49 21 -122h130v-71h-114c5 -23 6 -33 6 -49c0 -39 -6 -72 -25 -125c79 -46 104 -58 128 -58c38 0 60 32 63 89v10h76
c0 -68 -13 -108 -47 -144c-23 -25 -56 -38 -96 -38c-41 0 -62 9 -160 69c-34 -45 -69 -67 -105 -67c-46 0 -82 39 -82 88c0 53 41 93 93 93c17 0 41 -6 71 -18c4 20 5 27 5 43c0 36 -6 66 -20 108h-135v70h121c-9 53 -12 73 -12 101c0 70 23 118 71 150c27 18 58 28 89 28
c62 0 112 -33 139 -91c10 -22 13 -36 17 -72z" />
    <glyph glyph-name="fraction" unicode="&#x2044;" horiz-adv-x="135" 
d="M254 642h64l-436 -686h-65z" />
    <glyph glyph-name="fraction" unicode="&#x2215;" horiz-adv-x="135" 
d="M254 642h64l-436 -686h-65z" />
    <glyph glyph-name="yen" unicode="&#xa5;" horiz-adv-x="552" 
d="M189 525h187l58 96h94l-58 -96h41v-58h-76l-77 -126h153v-58h-188v-283h-81v283h-189v58h154l-77 126h-77v58h41l-58 96h94zM341 467h-117l59 -97z" />
    <glyph glyph-name="florin" unicode="&#x192;" horiz-adv-x="556" 
d="M25 -198l16 76c36 -8 57 -11 76 -11c37 0 52 18 61 75l87 508h-98l11 68h99l11 66c10 55 20 81 36 102c24 29 58 43 107 43c27 0 47 -4 92 -17l9 -2l-17 -75c-41 10 -55 12 -78 12c-37 0 -50 -16 -61 -78l-10 -51h100l-12 -68h-100l-93 -533c-16 -92 -52 -127 -128 -127
c-28 0 -68 4 -108 12z" />
    <glyph glyph-name="section" unicode="&#xa7;" horiz-adv-x="438" 
d="M199 128l35 -21c62 24 91 60 91 113c0 25 -14 51 -39 72c-23 20 -27 22 -87 59c-61 -26 -91 -63 -91 -110c0 -43 21 -69 91 -113zM384 507h-85c-13 45 -40 64 -86 64c-43 0 -71 -22 -71 -55c0 -29 26 -54 94 -91c115 -63 162 -122 162 -204c0 -37 -13 -70 -39 -98
c-18 -20 -33 -30 -70 -50c62 -42 88 -81 88 -134c0 -69 -70 -128 -153 -128c-94 0 -158 51 -174 138h84c19 -46 42 -63 86 -63c41 0 72 22 72 53s-27 58 -98 97c-114 62 -160 119 -160 197c0 39 14 73 41 102c17 19 32 30 70 49c-58 37 -88 81 -88 131c0 74 69 130 161 130
c44 0 83 -14 115 -42c28 -25 39 -44 51 -96z" />
    <glyph glyph-name="currency" unicode="&#xa4;" horiz-adv-x="667" 
d="M95 518l43 44l63 -63c49 37 73 45 138 45c52 0 78 -9 127 -45l62 63l43 -44l-62 -62c37 -53 45 -77 45 -136c0 -57 -9 -81 -45 -128l62 -63l-43 -43l-62 62c-52 -36 -77 -45 -133 -45c-60 0 -84 8 -132 45l-62 -62l-44 43l63 63c-36 56 -44 81 -44 135s8 79 44 129z
M175 323c0 -87 71 -159 158 -159c88 0 159 72 159 159c0 88 -70 159 -157 159c-88 0 -160 -71 -160 -159z" />
    <glyph glyph-name="quotesingle" unicode="'" horiz-adv-x="191" 
d="M68 462l-23 134v120h101v-120l-24 -134h-54z" />
    <glyph glyph-name="quotedblleft" unicode="&#x201c;" horiz-adv-x="385" 
d="M300 640l39 -38c-32 -34 -45 -60 -49 -99h53v-110h-109v104c0 48 25 101 66 143zM111 639l38 -37c-31 -40 -43 -63 -47 -98h54v-112h-110v85c0 67 17 110 65 162z" />
    <glyph glyph-name="guillemotleft" unicode="&#xab;" 
d="M135 501h90l-95 -230l93 -231h-89l-93 229zM371 500h92l-96 -230l93 -231h-90l-93 231z" />
    <glyph glyph-name="guilsinglleft" unicode="&#x2039;" horiz-adv-x="271" 
d="M132 501h90l-95 -230l93 -231h-89l-94 229z" />
    <glyph glyph-name="guilsinglright" unicode="&#x203a;" horiz-adv-x="272" 
d="M35 501h91l95 -231l-95 -230h-90l94 231z" />
    <glyph glyph-name="endash" unicode="&#x2013;" 
d="M-5 295h511v-89h-511v89z" />
    <glyph glyph-name="dagger" unicode="&#x2020;" horiz-adv-x="438" 
d="M233 -185h-32c-1 77 -2 111 -5 153c-3 35 -7 75 -13 119c-7 53 -8 61 -8 97c1 41 2 52 13 97c10 41 11 50 12 83c-28 -1 -34 -3 -64 -13c-26 -9 -38 -12 -55 -12c-24 0 -41 17 -41 41c0 27 16 41 46 41c14 0 23 -2 45 -10c29 -11 38 -12 70 -13c-2 47 -3 61 -15 117
c-8 40 -11 58 -11 77c0 37 17 59 44 59c26 0 42 -23 42 -60c0 -14 -3 -30 -11 -64c-13 -58 -16 -80 -18 -129c28 1 35 2 68 13c25 7 37 10 50 10c26 0 45 -17 45 -41c0 -23 -19 -40 -43 -40c-15 0 -26 2 -51 11c-30 10 -37 12 -67 13c1 -29 2 -36 11 -74
c11 -47 13 -60 14 -105c0 -28 -1 -33 -6 -73c-10 -66 -14 -116 -17 -184c-1 -25 -2 -63 -3 -113z" />
    <glyph glyph-name="daggerdbl" unicode="&#x2021;" horiz-adv-x="438" 
d="M230 475c32 1 45 3 78 15c21 7 28 9 39 9c25 0 46 -19 46 -43s-18 -39 -45 -39c-16 0 -28 2 -55 12c-30 10 -36 12 -63 13c1 -29 3 -37 15 -67c10 -24 13 -34 13 -48c0 -13 -4 -25 -13 -48c-10 -22 -14 -35 -14 -47c0 -13 4 -26 13 -50c10 -25 13 -38 13 -52
c0 -13 -3 -24 -12 -47c-11 -28 -13 -35 -14 -60c28 1 39 3 71 14c24 8 33 10 47 10c26 0 43 -16 43 -40c0 -25 -17 -42 -43 -42c-14 0 -25 2 -49 11c-32 11 -40 12 -70 13c1 -32 3 -44 15 -78c9 -27 11 -32 12 -54c-1 -28 -16 -43 -42 -43s-43 17 -43 42c0 14 2 26 11 53
c13 38 15 47 16 81c-28 0 -39 -3 -71 -14c-25 -8 -34 -11 -48 -11c-25 0 -45 18 -45 40c0 26 18 42 45 42c15 0 26 -2 52 -11c30 -10 38 -12 66 -13c-1 27 -3 34 -14 62c-10 25 -12 35 -12 51c0 13 2 23 12 45c11 24 14 36 14 52c0 12 -3 23 -13 45c-11 24 -14 37 -14 52
c0 14 3 25 12 49c12 29 13 36 15 63c-27 -1 -33 -3 -64 -14c-27 -9 -39 -11 -54 -11c-26 0 -45 17 -45 41c0 23 21 42 47 42c12 0 21 -2 43 -11c32 -11 41 -13 74 -14c-1 34 -3 44 -15 82c-8 26 -11 39 -11 51c0 24 18 42 43 42c24 0 42 -18 42 -43c0 -15 -2 -26 -12 -53
c-13 -36 -14 -45 -16 -79z" />
    <glyph glyph-name="periodcentered" unicode="&#xb7;" horiz-adv-x="219" 
d="M110 383c39 0 71 -31 71 -70s-32 -71 -71 -71s-71 32 -71 71s32 70 71 70z" />
    <glyph glyph-name="periodcentered" unicode="&#x2219;" horiz-adv-x="219" 
d="M110 383c39 0 71 -31 71 -70s-32 -71 -71 -71s-71 32 -71 71s32 70 71 70z" />
    <glyph glyph-name="paragraph" unicode="&#xb6;" horiz-adv-x="538" 
d="M196 -199v510c-122 7 -198 84 -198 202c0 81 40 148 108 180c40 18 64 23 123 23h309v-85h-70v-830h-83v830h-109v-830h-80z" />
    <glyph glyph-name="bullet" unicode="&#x2022;" horiz-adv-x="350" 
d="M51 350c0 69 56 124 124 124s124 -55 124 -124c0 -68 -56 -123 -124 -123s-124 55 -124 123z" />
    <glyph glyph-name="quotesinglbase" unicode="&#x201a;" horiz-adv-x="219" 
d="M99 123l105 -41l-115 -250l-76 30z" />
    <glyph glyph-name="quotedblbase" unicode="&#x201e;" horiz-adv-x="385" 
d="M234 113h109v-102c0 -55 -17 -93 -65 -145l-38 38c29 30 46 63 49 98h-55v111zM45 112h110v-102c0 -52 -24 -104 -66 -144l-39 38c31 32 43 55 50 97h-55v111z" />
    <glyph glyph-name="quotedblright" unicode="&#x201d;" horiz-adv-x="385" 
d="M234 633h109v-109c0 -48 -23 -97 -64 -137l-39 37c32 33 46 61 49 98h-55v111zM46 633h110v-100c0 -53 -20 -98 -67 -147l-39 39c30 27 47 58 50 97h-54v111z" />
    <glyph glyph-name="guillemotright" unicode="&#xbb;" 
d="M38 501h91l94 -231l-94 -230h-91l95 231zM276 501h89l95 -229l-95 -232h-90l94 229z" />
    <glyph glyph-name="ellipsis" unicode="&#x2026;" horiz-adv-x="1000" 
d="M166 135c40 0 72 -32 72 -71c0 -40 -32 -72 -72 -72s-71 32 -71 72c0 39 31 71 71 71zM500 134c40 0 72 -32 72 -71c0 -40 -32 -72 -72 -72s-72 32 -72 72c0 39 32 71 72 71zM833 134c40 0 72 -31 72 -71s-32 -71 -72 -71c-39 0 -71 31 -71 71s32 71 71 71z" />
    <glyph glyph-name="perthousand" unicode="&#x2030;" horiz-adv-x="1156" 
d="M176 353c49 0 72 36 72 113c0 75 -23 111 -72 111c-48 0 -74 -37 -74 -107c0 -76 26 -117 74 -117zM177 642c86 0 138 -68 138 -179c0 -108 -52 -174 -139 -174c-85 0 -140 67 -140 172c0 112 53 181 141 181zM560 642h64l-436 -686h-64zM914 19c49 0 72 36 72 113
c0 76 -24 112 -72 112s-74 -38 -74 -108c0 -76 26 -117 74 -117zM915 308c86 0 138 -67 138 -179c0 -108 -53 -173 -139 -173c-85 0 -140 67 -140 171c0 113 53 181 141 181zM571 19c49 0 72 36 72 113c0 76 -23 112 -72 112s-73 -38 -73 -116c0 -68 27 -109 73 -109z
M572 308c86 0 138 -67 138 -179c0 -108 -52 -173 -139 -173c-85 0 -140 67 -140 171c0 113 53 181 141 181z" />
    <glyph glyph-name="questiondown" unicode="&#xbf;" horiz-adv-x="385" 
d="M275 75h81c-6 -66 -22 -103 -56 -137c-29 -27 -65 -41 -107 -41c-90 0 -162 64 -162 146c0 73 42 121 142 167c57 25 79 45 79 68c0 22 -20 37 -48 37c-38 0 -57 -16 -74 -64h-81c10 54 25 83 56 110c27 23 61 35 98 35c75 0 127 -48 127 -116c0 -62 -33 -100 -122 -141
c-70 -31 -94 -56 -94 -94c0 -37 34 -67 76 -67c50 0 80 35 85 97zM186 550c29 0 53 -24 53 -53s-24 -53 -53 -53c-30 0 -53 24 -53 53s23 53 53 53z" />
    <glyph glyph-name="grave" unicode="`" horiz-adv-x="333" 
d="M227 477h-71l-113 136h118z" />
    <glyph glyph-name="acute" unicode="&#xb4;" horiz-adv-x="333" 
d="M109 477l65 136h115l-108 -136h-72z" />
    <glyph glyph-name="circumflex" unicode="&#x2c6;" horiz-adv-x="333" 
d="M168 560l-56 -83h-100l106 136h93l110 -136h-100z" />
    <glyph glyph-name="tilde" unicode="&#x2dc;" horiz-adv-x="333" 
d="M68 489h-65v6c0 61 42 105 100 105c19 0 46 -8 74 -23l15 -7c15 -7 27 -11 39 -11c22 0 31 11 35 42h64c-2 -70 -37 -111 -95 -111c-22 0 -45 7 -73 23l-18 10c-17 9 -28 12 -39 12c-22 0 -37 -17 -37 -42v-4z" />
    <glyph glyph-name="macron" unicode="&#xaf;" horiz-adv-x="333" 
d="M14 493v72h305v-72h-305z" />
    <glyph glyph-name="macron" unicode="&#x2c9;" horiz-adv-x="333" 
d="M14 493v72h305v-72h-305z" />
    <glyph glyph-name="breve" unicode="&#x2d8;" horiz-adv-x="333" 
d="M251 608h60c-10 -81 -61 -126 -143 -126c-85 0 -136 44 -146 126h60c10 -45 36 -65 84 -65c49 0 75 20 85 65z" />
    <glyph glyph-name="dotaccent" unicode="&#x2d9;" horiz-adv-x="333" 
d="M166 579c29 0 52 -23 52 -52c0 -28 -23 -51 -52 -51c-28 0 -51 23 -51 51c0 29 23 52 51 52z" />
    <glyph glyph-name="dieresis" unicode="&#xa8;" horiz-adv-x="333" 
d="M68 587c28 0 51 -23 51 -51c0 -29 -23 -52 -51 -52c-29 0 -52 23 -52 52c0 28 23 51 52 51zM265 587c29 0 52 -23 52 -51c0 -29 -23 -52 -52 -52c-28 0 -51 23 -51 52c0 28 23 51 51 51z" />
    <glyph glyph-name="ring" unicode="&#x2da;" horiz-adv-x="333" 
d="M79 547c0 47 40 87 88 87c49 0 88 -40 88 -89c0 -50 -39 -90 -88 -90s-88 41 -88 92zM116 546c0 -30 23 -54 52 -54c28 0 52 24 52 53c0 30 -23 53 -52 53c-28 0 -52 -23 -52 -52z" />
    <glyph glyph-name="cedilla" unicode="&#xb8;" horiz-adv-x="333" 
d="M105 -75l26 86h65l-16 -52c52 -6 83 -34 83 -72c0 -56 -56 -93 -145 -93c-20 0 -48 3 -66 6l5 57h11c14 -1 23 -2 27 -2c60 0 87 12 87 37c0 22 -22 32 -69 33h-8z" />
    <glyph glyph-name="hungarumlaut" unicode="&#x2dd;" horiz-adv-x="333" 
d="M28 477l60 136h114l-103 -136h-71zM198 477l62 136h113l-101 -136h-74z" />
    <glyph glyph-name="ogonek" unicode="&#x2db;" horiz-adv-x="333" 
d="M110 12h60c-12 -28 -19 -57 -19 -81c0 -42 30 -74 70 -74c24 0 53 8 82 23v-58c-34 -18 -77 -30 -107 -30c-64 0 -107 43 -107 108c0 29 7 64 21 112z" />
    <glyph glyph-name="caron" unicode="&#x2c7;" horiz-adv-x="333" 
d="M175 530l54 83h100l-110 -136h-94l-105 136h100z" />
    <glyph glyph-name="emdash" unicode="&#x2014;" horiz-adv-x="1000" 
d="M-6 295h1011v-89h-1011v89z" />
    <glyph glyph-name="AE" unicode="&#xc6;" horiz-adv-x="771" 
d="M402 537l-150 -273h152v273h-2zM359 622h384v-84h-255v-156h255v-84h-255v-214h254v-84h-338v194h-191l-108 -194h-94z" />
    <glyph glyph-name="ordfeminine" unicode="&#xaa;" horiz-adv-x="365" 
d="M184 591c-48 0 -89 -39 -89 -85c0 -50 39 -90 88 -90c48 0 88 40 88 87c0 49 -39 88 -87 88zM264 374v51h-2c-31 -42 -59 -58 -99 -58c-70 0 -125 61 -125 139c0 75 57 136 125 136c40 0 70 -18 98 -59h2v52h54v-261h-53z" />
    <glyph glyph-name="Lslash" unicode="&#x141;" horiz-adv-x="385" 
d="M85 622h83v-222l84 97v-99l-84 -96v-219h204v-83h-287v205l-57 -67v99l57 66v319z" />
    <glyph glyph-name="Oslash" unicode="&#xd8;" horiz-adv-x="771" 
d="M199 146l324 376c-50 25 -77 32 -124 32c-144 0 -260 -110 -260 -247c0 -65 11 -95 60 -161zM582 475l-327 -375c50 -25 76 -31 121 -31c148 0 262 110 262 254c0 57 -12 87 -56 152zM671 694l56 -50l-86 -100c39 -48 52 -69 67 -109c13 -35 19 -71 19 -113
c0 -193 -152 -342 -349 -342c-70 0 -112 11 -182 50l-93 -106l-53 50l89 103c-37 41 -49 60 -65 101c-16 39 -24 81 -24 124c0 192 154 342 353 342c66 0 110 -12 182 -51z" />
    <glyph glyph-name="OE" unicode="&#x152;" horiz-adv-x="771" 
d="M407 84v453h-35c-92 0 -139 -16 -187 -64c-43 -43 -65 -98 -65 -163c0 -58 24 -116 64 -157c33 -35 80 -60 122 -66c17 -2 38 -3 61 -3h18h17h5zM736 621v-84h-247v-155h246v-83h-246v-215h245v-84h-381c-187 0 -322 131 -322 312c0 171 136 309 304 309h401z" />
    <glyph glyph-name="ordmasculine" unicode="&#xba;" horiz-adv-x="323" 
d="M161 642c76 0 142 -64 142 -137c0 -75 -65 -139 -139 -139c-77 0 -143 64 -143 139c0 72 67 137 140 137zM162 588c-47 0 -87 -39 -87 -85c0 -43 42 -83 88 -83c47 0 86 39 86 85s-39 83 -87 83z" />
    <glyph glyph-name="ae" unicode="&#xe6;" horiz-adv-x="823" 
d="M464 254h237c-25 54 -66 82 -119 82c-52 0 -94 -29 -118 -82zM251 334c-76 0 -137 -60 -137 -134c0 -72 62 -133 134 -133s131 60 131 133c0 74 -57 134 -128 134zM369 331v72h83v-33c53 36 78 44 129 44c114 0 209 -98 209 -216v-15h-336c15 -72 66 -115 134 -115
c47 0 84 18 118 58l62 -45c-18 -24 -26 -33 -43 -46c-39 -30 -87 -45 -143 -45c-48 0 -80 11 -129 43v-32h-83v75h-2c-43 -59 -95 -87 -157 -87c-99 0 -186 100 -186 214c0 115 86 211 188 211c61 0 109 -25 154 -83h2z" />
    <glyph glyph-name="dotlessi" unicode="&#x131;" horiz-adv-x="219" 
d="M65 403h84v-403h-84v403z" />
    <glyph glyph-name="lslash" unicode="&#x142;" horiz-adv-x="219" 
d="M78 635h82v-244l56 47v-82l-56 -48v-308h-82v240l-55 -46v81l55 47v313z" />
    <glyph glyph-name="oslash" unicode="&#xf8;" 
d="M145 130l164 189c-26 9 -37 12 -56 12c-73 0 -133 -58 -133 -130c0 -24 5 -39 25 -71zM359 278l-165 -188c25 -11 37 -14 56 -14c73 0 134 59 134 131c0 26 -5 40 -25 71zM419 446l48 -41l-54 -63c38 -47 55 -88 55 -132c0 -120 -97 -218 -216 -218c-41 0 -73 9 -114 33
l-55 -63l-48 42l54 63c-40 50 -53 84 -53 139c0 111 101 209 216 209c39 0 71 -9 113 -32z" />
    <glyph glyph-name="oe" unicode="&#x153;" horiz-adv-x="823" 
d="M463 256h240c-29 55 -68 81 -118 81c-57 0 -99 -28 -122 -81zM249 331c-76 0 -135 -57 -135 -131c0 -67 60 -124 132 -124c69 0 128 59 128 127c0 71 -56 128 -125 128zM705 128l64 -47c-33 -38 -50 -51 -83 -67c-30 -15 -65 -23 -98 -23c-35 0 -64 6 -93 20
c-33 16 -48 29 -78 66c-29 -36 -44 -49 -78 -65c-29 -15 -60 -22 -93 -22c-116 0 -218 101 -218 216c0 113 103 209 224 209c29 0 58 -7 85 -20c33 -17 48 -29 78 -65c32 37 47 49 81 65c29 14 59 20 91 20c116 0 204 -100 204 -230h-335c17 -77 63 -117 133 -117
c47 0 88 21 116 60z" />
    <glyph glyph-name="germandbls" unicode="&#xdf;" horiz-adv-x="552" 
d="M77 1v414c0 137 80 227 204 227c118 0 201 -70 201 -170c0 -39 -15 -72 -44 -97c-25 -21 -42 -30 -90 -45v-2c62 -13 92 -29 118 -60c24 -29 36 -68 36 -115c0 -103 -66 -163 -181 -163c-42 0 -63 6 -101 26v74c34 -19 58 -26 94 -26c63 0 106 46 106 113
c0 62 -58 116 -124 116h-42v72h47c56 0 100 42 100 96c0 58 -50 102 -115 101c-72 0 -125 -54 -125 -128v-433h-84z" />
    <glyph glyph-name="onesuperior" unicode="&#xb9;" horiz-adv-x="385" 
d="M109 638h115v-399h-60v339h-77z" />
    <glyph glyph-name="logicalnot" unicode="&#xac;" horiz-adv-x="667" 
d="M68 476h531v-302h-64v238h-467v64z" />
    <glyph glyph-name="mu" unicode="&#xb5;" horiz-adv-x="556" 
d="M487 518v-518h-78v61h-2c-34 -54 -68 -73 -130 -73c-53 0 -84 16 -120 64h-2v-251h-87v717h87v-252c0 -93 8 -130 37 -162c20 -23 50 -37 81 -37c30 0 60 11 80 28c38 33 48 67 48 169v254h86z" />
    <glyph glyph-name="mu" unicode="&#x3bc;" horiz-adv-x="556" 
d="M487 518v-518h-78v61h-2c-34 -54 -68 -73 -130 -73c-53 0 -84 16 -120 64h-2v-251h-87v717h87v-252c0 -93 8 -130 37 -162c20 -23 50 -37 81 -37c30 0 60 11 80 28c38 33 48 67 48 169v254h86z" />
    <glyph glyph-name="trademark" unicode="&#x2122;" horiz-adv-x="1000" 
d="M239 318v339h-129v59h325v-59h-130v-339h-66zM480 318v398h98l99 -318h2l96 318h96v-398h-61v334h-2l-100 -334h-60l-105 339h-2v-339h-61z" />
    <glyph glyph-name="Eth" unicode="&#xd0;" horiz-adv-x="604" 
d="M158 538v-191h159v-74h-159v-190h50c175 0 282 86 282 226c0 134 -103 229 -250 229h-82zM77 621h151c114 0 197 -29 258 -90c57 -57 92 -142 92 -221c0 -82 -33 -161 -93 -219c-62 -61 -146 -91 -253 -91h-155v272h-64v74h64v275z" />
    <glyph glyph-name="onehalf" unicode="&#xbd;" horiz-adv-x="906" 
d="M92 637h115v-398h-60v339h-77zM678 28h154v-59h-292l203 213c22 23 33 47 33 70c0 38 -35 65 -84 65c-54 0 -78 -18 -83 -63h-60c4 82 53 124 144 124c85 0 143 -52 143 -128c0 -38 -14 -74 -40 -101zM598 642h64l-436 -686h-64z" />
    <glyph glyph-name="plusminus" unicode="&#xb1;" horiz-adv-x="667" 
d="M68 437h233v234h64v-234h234v-64h-234v-233h-64v233h-233v64zM68 42h531v-64h-531v64z" />
    <glyph glyph-name="Thorn" unicode="&#xde;" 
d="M177 420v-218c90 3 133 14 162 44c17 17 25 40 25 69c0 68 -55 105 -156 105h-31zM177 622v-127h33c147 0 243 -71 243 -179c0 -110 -104 -188 -251 -188h-25v-128h-83v622h83z" />
    <glyph glyph-name="onequarter" unicode="&#xbc;" horiz-adv-x="906" 
d="M740 233l-115 -137h115v137zM796 381v-285h38v-54h-38v-73h-55v73h-228zM95 637h115v-398h-60v339h-77zM623 642h65l-436 -686h-65z" />
    <glyph glyph-name="divide" unicode="&#xf7;" horiz-adv-x="667" 
d="M291 529c1 21 19 39 42 39c22 0 40 -19 40 -41c0 -23 -18 -42 -40 -42c-23 0 -42 20 -42 44zM291 123c0 23 19 42 42 42s41 -19 41 -41c0 -23 -18 -42 -41 -42s-42 19 -42 41zM68 354h532v-62h-532v62z" />
    <glyph glyph-name="brokenbar" unicode="&#xa6;" horiz-adv-x="527" 
d="M231 218h65v-353h-65v353zM231 696h65v-354h-65v354z" />
    <glyph glyph-name="degree" unicode="&#xb0;" horiz-adv-x="400" 
d="M65 593c0 74 60 135 135 135s135 -60 135 -135s-60 -136 -135 -136s-135 61 -135 136zM118 593c0 -46 37 -83 82 -83c46 0 82 37 82 83c0 45 -36 82 -82 82s-82 -37 -82 -82z" />
    <glyph glyph-name="thorn" unicode="&#xfe;" horiz-adv-x="552" 
d="M160 634v-313h2c12 24 20 34 35 47c34 30 76 46 117 46c106 0 192 -94 192 -210s-86 -213 -189 -213c-43 0 -82 14 -115 41c-16 13 -25 23 -40 49h-2v-270h-82v823h82zM282 336c-74 0 -135 -60 -135 -134c0 -73 62 -134 135 -134c74 0 135 61 135 134s-62 134 -135 134z
" />
    <glyph glyph-name="threequarters" unicode="&#xbe;" horiz-adv-x="906" 
d="M758 233l-115 -137h115v137zM814 381v-285h38v-54h-38v-73h-55v73h-228zM127 548h-64v3c0 57 52 97 127 97c83 0 136 -41 136 -104c0 -40 -15 -62 -64 -90c56 -30 73 -55 73 -105c0 -70 -57 -118 -141 -118c-46 0 -82 12 -107 36c-20 18 -27 34 -33 74h64
c5 -39 28 -55 77 -55c44 0 75 26 75 65c0 48 -27 71 -89 73v57c56 2 81 21 81 63c0 30 -27 50 -67 50s-60 -14 -68 -46zM665 642h63l-436 -686h-64z" />
    <glyph glyph-name="twosuperior" unicode="&#xb2;" horiz-adv-x="385" 
d="M179 299h154v-60h-293l203 212c22 23 33 48 33 73c0 38 -33 63 -83 63c-54 0 -76 -17 -83 -62h-60c4 80 53 123 142 123c86 0 145 -53 145 -129c0 -37 -14 -73 -41 -100z" />
    <glyph glyph-name="registered" unicode="&#xae;" horiz-adv-x="738" 
d="M207 156v396h136c61 0 80 -2 108 -13c35 -15 62 -54 62 -91c0 -64 -46 -110 -113 -114v-2c30 -11 52 -35 92 -99l48 -77h-78l-35 62c-51 89 -69 106 -118 106h-38v-168h-64zM271 379h78c66 0 96 18 96 60c0 44 -27 59 -101 59h-73v-119zM369 728c203 0 368 -165 368 -368
c0 -204 -165 -369 -368 -369c-204 0 -369 165 -369 369c0 203 165 368 369 368zM369 667c-170 0 -308 -138 -308 -307c0 -170 138 -308 308 -308c169 0 307 138 307 308c0 169 -138 307 -307 307z" />
    <glyph glyph-name="minus" unicode="&#x2212;" horiz-adv-x="667" 
d="M68 356h531v-64h-531v64z" />
    <glyph glyph-name="eth" unicode="&#xf0;" 
d="M262 330c-72 0 -132 -60 -132 -130c0 -66 61 -125 129 -125c74 0 132 57 132 130c0 68 -59 125 -129 125zM138 593l40 56c38 -11 64 -24 100 -45l92 44l27 -56l-62 -32c61 -56 81 -84 108 -142c24 -54 36 -112 36 -176c0 -148 -91 -253 -218 -253
c-116 0 -215 99 -215 215c0 110 101 209 214 209c46 0 73 -9 108 -41l2 2c-9 34 -15 47 -32 74c-20 32 -34 47 -72 78l-137 -68l-29 57l104 51c-25 11 -32 13 -66 27z" />
    <glyph glyph-name="multiply" unicode="&#xd7;" horiz-adv-x="667" 
d="M90 523l45 45l199 -200l200 200l45 -46l-199 -199l197 -198l-45 -45l-198 198l-198 -198l-45 45l198 198z" />
    <glyph glyph-name="threesuperior" unicode="&#xb3;" horiz-adv-x="385" 
d="M124 548h-65v3c0 57 53 98 127 98c83 0 137 -41 137 -105c0 -40 -16 -62 -65 -90c56 -31 73 -55 73 -105c0 -70 -57 -118 -141 -118c-46 0 -82 12 -107 36c-20 18 -27 34 -33 74h64c5 -39 28 -55 77 -55c45 0 76 26 76 65c0 48 -28 71 -90 73v57c57 2 81 21 81 63
c0 30 -26 50 -67 50c-39 0 -60 -14 -67 -46z" />
    <glyph glyph-name="copyright" unicode="&#xa9;" horiz-adv-x="738" 
d="M487 300l60 -18c-20 -82 -88 -134 -177 -134c-121 0 -194 82 -194 217c0 122 78 201 197 201c85 0 145 -41 166 -115l-58 -14c-19 50 -58 75 -114 75c-75 0 -125 -62 -125 -156s48 -150 127 -150c57 0 103 37 118 94zM369 728c203 0 368 -165 368 -368
c0 -204 -165 -369 -368 -369c-204 0 -369 165 -369 369c0 203 165 368 369 368zM369 667c-170 0 -308 -138 -308 -307c0 -170 138 -308 308 -308c169 0 307 138 307 308c0 169 -138 307 -307 307z" />
    <glyph glyph-name="Aacute" unicode="&#xc1;" horiz-adv-x="604" 
d="M297 451l-100 -221h200zM297 646l294 -646h-89l-73 159h-264l-71 -159h-88zM245 684l65 136h115l-108 -136h-72z" />
    <glyph glyph-name="Acircumflex" unicode="&#xc2;" horiz-adv-x="604" 
d="M297 451l-100 -221h200zM297 646l294 -646h-89l-73 159h-264l-71 -159h-88zM304 767l-56 -83h-100l106 136h93l110 -136h-100z" />
    <glyph glyph-name="Adieresis" unicode="&#xc4;" horiz-adv-x="604" 
d="M297 451l-100 -221h200zM297 646l294 -646h-89l-73 159h-264l-71 -159h-88zM204 794c28 0 51 -23 51 -51c0 -29 -23 -52 -51 -52c-29 0 -52 23 -52 52c0 28 23 51 52 51zM401 794c29 0 52 -23 52 -51c0 -29 -23 -52 -52 -52c-28 0 -51 23 -51 52c0 28 23 51 51 51z" />
    <glyph glyph-name="Agrave" unicode="&#xc0;" horiz-adv-x="604" 
d="M297 451l-100 -221h200zM297 646l294 -646h-89l-73 159h-264l-71 -159h-88zM363 684h-71l-113 136h118z" />
    <glyph glyph-name="Aring" unicode="&#xc5;" horiz-adv-x="604" 
d="M297 451l-100 -221h200zM297 646l294 -646h-89l-73 159h-264l-71 -159h-88zM215 754c0 47 40 87 88 87c49 0 88 -40 88 -89c0 -50 -39 -90 -88 -90s-88 41 -88 92zM252 753c0 -30 23 -54 52 -54c28 0 52 24 52 53c0 30 -23 53 -52 53c-28 0 -52 -23 -52 -52z" />
    <glyph glyph-name="Atilde" unicode="&#xc3;" horiz-adv-x="604" 
d="M297 451l-100 -221h200zM297 646l294 -646h-89l-73 159h-264l-71 -159h-88zM204 696h-65v6c0 61 42 105 100 105c19 0 46 -8 74 -23l15 -7c15 -7 27 -11 39 -11c22 0 31 11 35 42h64c-2 -70 -37 -111 -95 -111c-22 0 -45 7 -73 23l-18 10c-17 9 -28 12 -39 12
c-22 0 -37 -17 -37 -42v-4z" />
    <glyph glyph-name="Ccedilla" unicode="&#xc7;" horiz-adv-x="604" 
d="M568 601v-96c-73 35 -125 49 -185 49c-145 0 -257 -105 -257 -242c0 -140 114 -243 266 -243c58 0 107 14 176 52v-97c-62 -32 -112 -45 -183 -45c-194 0 -350 149 -350 334c0 182 154 329 344 329c64 0 116 -11 189 -41zM241 -75l26 86h65l-16 -52c52 -6 83 -34 83 -72
c0 -56 -56 -93 -145 -93c-20 0 -48 3 -66 6l5 57h11c14 -1 23 -2 27 -2c60 0 87 12 87 37c0 22 -22 32 -69 33h-8z" />
    <glyph glyph-name="Eacute" unicode="&#xc9;" horiz-adv-x="438" 
d="M58 622h345v-85h-261v-155h261v-84h-261v-214h261v-84h-345v622zM162 684l65 136h115l-108 -136h-72z" />
    <glyph glyph-name="Ecircumflex" unicode="&#xca;" horiz-adv-x="438" 
d="M58 622h345v-85h-261v-155h261v-84h-261v-214h261v-84h-345v622zM221 767l-56 -83h-100l106 136h93l110 -136h-100z" />
    <glyph glyph-name="Edieresis" unicode="&#xcb;" horiz-adv-x="438" 
d="M58 622h345v-85h-261v-155h261v-84h-261v-214h261v-84h-345v622zM121 794c28 0 51 -23 51 -51c0 -29 -23 -52 -51 -52c-29 0 -52 23 -52 52c0 28 23 51 52 51zM318 794c29 0 52 -23 52 -51c0 -29 -23 -52 -52 -52c-28 0 -51 23 -51 52c0 28 23 51 51 51z" />
    <glyph glyph-name="Egrave" unicode="&#xc8;" horiz-adv-x="438" 
d="M58 622h345v-85h-261v-155h261v-84h-261v-214h261v-84h-345v622zM280 684h-71l-113 136h118z" />
    <glyph glyph-name="Iacute" unicode="&#xcd;" horiz-adv-x="219" 
d="M64 622h84v-622h-84v622zM52 684l65 136h115l-108 -136h-72z" />
    <glyph glyph-name="Icircumflex" unicode="&#xce;" horiz-adv-x="219" 
d="M64 622h84v-622h-84v622zM111 767l-56 -83h-100l106 136h93l110 -136h-100z" />
    <glyph glyph-name="Idieresis" unicode="&#xcf;" horiz-adv-x="219" 
d="M64 622h84v-622h-84v622zM11 794c28 0 51 -23 51 -51c0 -29 -23 -52 -51 -52c-29 0 -52 23 -52 52c0 28 23 51 52 51zM208 794c29 0 52 -23 52 -51c0 -29 -23 -52 -52 -52c-28 0 -51 23 -51 52c0 28 23 51 51 51z" />
    <glyph glyph-name="Igrave" unicode="&#xcc;" horiz-adv-x="219" 
d="M64 622h84v-622h-84v622zM170 684h-71l-113 136h118z" />
    <glyph glyph-name="Ntilde" unicode="&#xd1;" horiz-adv-x="667" 
d="M60 647l460 -473v448h85v-651l-460 471v-442h-85v647zM235 696h-65v6c0 61 42 105 100 105c19 0 46 -8 74 -23l15 -7c15 -7 27 -11 39 -11c22 0 31 11 35 42h64c-2 -70 -37 -111 -95 -111c-22 0 -45 7 -73 23l-18 10c-17 9 -28 12 -39 12c-22 0 -37 -17 -37 -42v-4z" />
    <glyph glyph-name="Oacute" unicode="&#xd3;" horiz-adv-x="771" 
d="M378 555c-138 0 -250 -109 -250 -244c0 -137 114 -243 260 -243c135 0 247 110 247 243c0 138 -112 244 -257 244zM385 642c186 0 340 -148 340 -327c0 -189 -150 -336 -343 -336c-191 0 -343 149 -343 336c0 181 155 327 346 327zM328 684l65 136h115l-108 -136h-72z
" />
    <glyph glyph-name="Ocircumflex" unicode="&#xd4;" horiz-adv-x="771" 
d="M378 555c-138 0 -250 -109 -250 -244c0 -137 114 -243 260 -243c135 0 247 110 247 243c0 138 -112 244 -257 244zM385 642c186 0 340 -148 340 -327c0 -189 -150 -336 -343 -336c-191 0 -343 149 -343 336c0 181 155 327 346 327zM387 767l-56 -83h-100l106 136h93
l110 -136h-100z" />
    <glyph glyph-name="Odieresis" unicode="&#xd6;" horiz-adv-x="771" 
d="M378 555c-138 0 -250 -109 -250 -244c0 -137 114 -243 260 -243c135 0 247 110 247 243c0 138 -112 244 -257 244zM385 642c186 0 340 -148 340 -327c0 -189 -150 -336 -343 -336c-191 0 -343 149 -343 336c0 181 155 327 346 327zM287 794c28 0 51 -23 51 -51
c0 -29 -23 -52 -51 -52c-29 0 -52 23 -52 52c0 28 23 51 52 51zM484 794c29 0 52 -23 52 -51c0 -29 -23 -52 -52 -52c-28 0 -51 23 -51 52c0 28 23 51 51 51z" />
    <glyph glyph-name="Ograve" unicode="&#xd2;" horiz-adv-x="771" 
d="M378 555c-138 0 -250 -109 -250 -244c0 -137 114 -243 260 -243c135 0 247 110 247 243c0 138 -112 244 -257 244zM385 642c186 0 340 -148 340 -327c0 -189 -150 -336 -343 -336c-191 0 -343 149 -343 336c0 181 155 327 346 327zM446 684h-71l-113 136h118z" />
    <glyph glyph-name="Otilde" unicode="&#xd5;" horiz-adv-x="771" 
d="M378 555c-138 0 -250 -109 -250 -244c0 -137 114 -243 260 -243c135 0 247 110 247 243c0 138 -112 244 -257 244zM385 642c186 0 340 -148 340 -327c0 -189 -150 -336 -343 -336c-191 0 -343 149 -343 336c0 181 155 327 346 327zM287 696h-65v6c0 61 42 105 100 105
c19 0 46 -8 74 -23l15 -7c15 -7 27 -11 39 -11c22 0 31 11 35 42h64c-2 -70 -37 -111 -95 -111c-22 0 -45 7 -73 23l-18 10c-17 9 -28 12 -39 12c-22 0 -37 -17 -37 -42v-4z" />
    <glyph glyph-name="Scaron" unicode="&#x160;" 
d="M445 553l-69 -55c-45 46 -66 56 -114 56c-61 0 -103 -30 -103 -74c0 -37 29 -63 109 -97c73 -31 89 -41 137 -83c37 -39 55 -84 55 -134c0 -104 -86 -187 -193 -187c-68 0 -125 24 -171 72c-26 28 -38 48 -59 99l85 24c33 -73 76 -105 142 -105c62 0 108 41 108 98
c0 26 -14 55 -38 78c-19 19 -42 32 -93 53c-65 26 -79 34 -121 71c-34 36 -49 71 -49 112c0 90 82 161 184 161c39 0 81 -10 117 -29c32 -16 45 -27 73 -60zM259 737l54 83h100l-110 -136h-94l-105 136h100z" />
    <glyph glyph-name="Uacute" unicode="&#xda;" horiz-adv-x="604" 
d="M62 621h85v-382c0 -113 56 -178 156 -178s157 60 157 163v397h85v-391c0 -153 -94 -251 -239 -251c-74 0 -127 20 -171 64c-52 52 -73 111 -73 210v368zM245 684l65 136h115l-108 -136h-72z" />
    <glyph glyph-name="Ucircumflex" unicode="&#xdb;" horiz-adv-x="604" 
d="M62 621h85v-382c0 -113 56 -178 156 -178s157 60 157 163v397h85v-391c0 -153 -94 -251 -239 -251c-74 0 -127 20 -171 64c-52 52 -73 111 -73 210v368zM304 767l-56 -83h-100l106 136h93l110 -136h-100z" />
    <glyph glyph-name="Udieresis" unicode="&#xdc;" horiz-adv-x="604" 
d="M62 621h85v-382c0 -113 56 -178 156 -178s157 60 157 163v397h85v-391c0 -153 -94 -251 -239 -251c-74 0 -127 20 -171 64c-52 52 -73 111 -73 210v368zM204 794c28 0 51 -23 51 -51c0 -29 -23 -52 -51 -52c-29 0 -52 23 -52 52c0 28 23 51 52 51zM401 794
c29 0 52 -23 52 -51c0 -29 -23 -52 -52 -52c-28 0 -51 23 -51 52c0 28 23 51 51 51z" />
    <glyph glyph-name="Ugrave" unicode="&#xd9;" horiz-adv-x="604" 
d="M62 621h85v-382c0 -113 56 -178 156 -178s157 60 157 163v397h85v-391c0 -153 -94 -251 -239 -251c-74 0 -127 20 -171 64c-52 52 -73 111 -73 210v368zM363 684h-71l-113 136h118z" />
    <glyph glyph-name="Yacute" unicode="&#xdd;" horiz-adv-x="552" 
d="M28 622h94l153 -250l151 250h94l-204 -337v-285h-85v284zM219 684l65 136h115l-108 -136h-72z" />
    <glyph glyph-name="Ydieresis" unicode="&#x178;" horiz-adv-x="552" 
d="M28 622h94l153 -250l151 250h94l-204 -337v-285h-85v284zM178 794c28 0 51 -23 51 -51c0 -29 -23 -52 -51 -52c-29 0 -52 23 -52 52c0 28 23 51 52 51zM375 794c29 0 52 -23 52 -51c0 -29 -23 -52 -52 -52c-28 0 -51 23 -51 52c0 28 23 51 51 51z" />
    <glyph glyph-name="Zcaron" unicode="&#x17d;" 
d="M47 622h420l-297 -538h291v-84h-429l295 537h-280v85zM259 737l54 83h100l-110 -136h-94l-105 136h100z" />
    <glyph glyph-name="aacute" unicode="&#xe1;" horiz-adv-x="552" 
d="M273 334c-72 0 -134 -60 -134 -131c0 -76 59 -137 134 -137c74 0 134 61 134 134c0 74 -60 134 -134 134zM396 321v82h85v-403h-85v80h-2c-20 -29 -30 -39 -48 -54c-31 -24 -66 -37 -104 -37c-107 0 -192 95 -192 214c0 113 87 211 190 211c40 0 79 -14 111 -41
c18 -14 27 -24 43 -52h2zM219 477l65 136h115l-108 -136h-72z" />
    <glyph glyph-name="acircumflex" unicode="&#xe2;" horiz-adv-x="552" 
d="M273 334c-72 0 -134 -60 -134 -131c0 -76 59 -137 134 -137c74 0 134 61 134 134c0 74 -60 134 -134 134zM396 321v82h85v-403h-85v80h-2c-20 -29 -30 -39 -48 -54c-31 -24 -66 -37 -104 -37c-107 0 -192 95 -192 214c0 113 87 211 190 211c40 0 79 -14 111 -41
c18 -14 27 -24 43 -52h2zM278 560l-56 -83h-100l106 136h93l110 -136h-100z" />
    <glyph glyph-name="adieresis" unicode="&#xe4;" horiz-adv-x="552" 
d="M273 334c-72 0 -134 -60 -134 -131c0 -76 59 -137 134 -137c74 0 134 61 134 134c0 74 -60 134 -134 134zM396 321v82h85v-403h-85v80h-2c-20 -29 -30 -39 -48 -54c-31 -24 -66 -37 -104 -37c-107 0 -192 95 -192 214c0 113 87 211 190 211c40 0 79 -14 111 -41
c18 -14 27 -24 43 -52h2zM178 587c28 0 51 -23 51 -51c0 -29 -23 -52 -51 -52c-29 0 -52 23 -52 52c0 28 23 51 52 51zM375 587c29 0 52 -23 52 -51c0 -29 -23 -52 -52 -52c-28 0 -51 23 -51 52c0 28 23 51 51 51z" />
    <glyph glyph-name="agrave" unicode="&#xe0;" horiz-adv-x="552" 
d="M273 334c-72 0 -134 -60 -134 -131c0 -76 59 -137 134 -137c74 0 134 61 134 134c0 74 -60 134 -134 134zM396 321v82h85v-403h-85v80h-2c-20 -29 -30 -39 -48 -54c-31 -24 -66 -37 -104 -37c-107 0 -192 95 -192 214c0 113 87 211 190 211c40 0 79 -14 111 -41
c18 -14 27 -24 43 -52h2zM337 477h-71l-113 136h118z" />
    <glyph glyph-name="aring" unicode="&#xe5;" horiz-adv-x="552" 
d="M273 334c-72 0 -134 -60 -134 -131c0 -76 59 -137 134 -137c74 0 134 61 134 134c0 74 -60 134 -134 134zM396 321v82h85v-403h-85v80h-2c-20 -29 -30 -39 -48 -54c-31 -24 -66 -37 -104 -37c-107 0 -192 95 -192 214c0 113 87 211 190 211c40 0 79 -14 111 -41
c18 -14 27 -24 43 -52h2zM189 547c0 47 40 87 88 87c49 0 88 -40 88 -89c0 -50 -39 -90 -88 -90s-88 41 -88 92zM226 546c0 -30 23 -54 52 -54c28 0 52 24 52 53c0 30 -23 53 -52 53c-28 0 -52 -23 -52 -52z" />
    <glyph glyph-name="atilde" unicode="&#xe3;" horiz-adv-x="552" 
d="M273 334c-72 0 -134 -60 -134 -131c0 -76 59 -137 134 -137c74 0 134 61 134 134c0 74 -60 134 -134 134zM396 321v82h85v-403h-85v80h-2c-20 -29 -30 -39 -48 -54c-31 -24 -66 -37 -104 -37c-107 0 -192 95 -192 214c0 113 87 211 190 211c40 0 79 -14 111 -41
c18 -14 27 -24 43 -52h2zM178 489h-65v6c0 61 42 105 100 105c19 0 46 -8 74 -23l15 -7c15 -7 27 -11 39 -11c22 0 31 11 35 42h64c-2 -70 -37 -111 -95 -111c-22 0 -45 7 -73 23l-18 10c-17 9 -28 12 -39 12c-22 0 -37 -17 -37 -42v-4z" />
    <glyph glyph-name="ccedilla" unicode="&#xe7;" horiz-adv-x="385" 
d="M359 123v-97c-51 -28 -81 -37 -126 -37c-112 0 -209 97 -209 208c0 125 93 217 219 217c40 0 72 -8 116 -29v-95c-42 27 -85 41 -121 41c-71 0 -132 -57 -132 -124c0 -75 56 -133 128 -133c39 0 74 14 125 49zM131 -75l26 86h65l-16 -52c52 -6 83 -34 83 -72
c0 -56 -56 -93 -145 -93c-20 0 -48 3 -66 6l5 57h11c14 -1 23 -2 27 -2c60 0 87 12 87 37c0 22 -22 32 -69 33h-8z" />
    <glyph glyph-name="eacute" unicode="&#xe9;" 
d="M124 253h246c-27 55 -68 83 -121 83c-57 0 -101 -29 -125 -83zM459 185h-344c9 -43 21 -65 46 -86s58 -33 92 -33c51 0 85 17 121 60l62 -47c-17 -22 -25 -30 -41 -43c-40 -30 -90 -47 -146 -47c-120 0 -211 92 -211 214c0 116 95 211 211 211c88 -1 163 -53 195 -137
c11 -29 14 -47 15 -92zM193 477l65 136h115l-108 -136h-72z" />
    <glyph glyph-name="ecircumflex" unicode="&#xea;" 
d="M124 253h246c-27 55 -68 83 -121 83c-57 0 -101 -29 -125 -83zM459 185h-344c9 -43 21 -65 46 -86s58 -33 92 -33c51 0 85 17 121 60l62 -47c-17 -22 -25 -30 -41 -43c-40 -30 -90 -47 -146 -47c-120 0 -211 92 -211 214c0 116 95 211 211 211c88 -1 163 -53 195 -137
c11 -29 14 -47 15 -92zM252 560l-56 -83h-100l106 136h93l110 -136h-100z" />
    <glyph glyph-name="edieresis" unicode="&#xeb;" 
d="M124 253h246c-27 55 -68 83 -121 83c-57 0 -101 -29 -125 -83zM459 185h-344c9 -43 21 -65 46 -86s58 -33 92 -33c51 0 85 17 121 60l62 -47c-17 -22 -25 -30 -41 -43c-40 -30 -90 -47 -146 -47c-120 0 -211 92 -211 214c0 116 95 211 211 211c88 -1 163 -53 195 -137
c11 -29 14 -47 15 -92zM152 587c28 0 51 -23 51 -51c0 -29 -23 -52 -51 -52c-29 0 -52 23 -52 52c0 28 23 51 52 51zM349 587c29 0 52 -23 52 -51c0 -29 -23 -52 -52 -52c-28 0 -51 23 -51 52c0 28 23 51 51 51z" />
    <glyph glyph-name="egrave" unicode="&#xe8;" 
d="M124 253h246c-27 55 -68 83 -121 83c-57 0 -101 -29 -125 -83zM459 185h-344c9 -43 21 -65 46 -86s58 -33 92 -33c51 0 85 17 121 60l62 -47c-17 -22 -25 -30 -41 -43c-40 -30 -90 -47 -146 -47c-120 0 -211 92 -211 214c0 116 95 211 211 211c88 -1 163 -53 195 -137
c11 -29 14 -47 15 -92zM311 477h-71l-113 136h118z" />
    <glyph glyph-name="iacute" unicode="&#xed;" horiz-adv-x="219" 
d="M65 403h84v-403h-84v403zM52 477l65 136h115l-108 -136h-72z" />
    <glyph glyph-name="icircumflex" unicode="&#xee;" horiz-adv-x="219" 
d="M65 403h84v-403h-84v403zM111 560l-56 -83h-100l106 136h93l110 -136h-100z" />
    <glyph glyph-name="idieresis" unicode="&#xef;" horiz-adv-x="219" 
d="M65 403h84v-403h-84v403zM11 587c28 0 51 -23 51 -51c0 -29 -23 -52 -51 -52c-29 0 -52 23 -52 52c0 28 23 51 52 51zM208 587c29 0 52 -23 52 -51c0 -29 -23 -52 -52 -52c-28 0 -51 23 -51 52c0 28 23 51 51 51z" />
    <glyph glyph-name="igrave" unicode="&#xec;" horiz-adv-x="219" 
d="M65 403h84v-403h-84v403zM170 477h-71l-113 136h118z" />
    <glyph glyph-name="ntilde" unicode="&#xf1;" horiz-adv-x="438" 
d="M124 403v-67c53 58 87 78 133 78c73 0 132 -55 132 -123v-291h-85v266c0 44 -31 76 -75 76c-57 0 -104 -55 -104 -123v-219h-84v403h83zM121 489h-65v6c0 61 42 105 100 105c19 0 46 -8 74 -23l15 -7c15 -7 27 -11 39 -11c22 0 31 11 35 42h64c-2 -70 -37 -111 -95 -111
c-22 0 -45 7 -73 23l-18 10c-17 9 -28 12 -39 12c-22 0 -37 -17 -37 -42v-4z" />
    <glyph glyph-name="oacute" unicode="&#xf3;" 
d="M252 330c-74 0 -135 -58 -135 -130c0 -68 62 -127 135 -127c71 0 132 61 132 130s-60 127 -132 127zM249 414c117 0 217 -98 217 -211c0 -114 -99 -214 -211 -214c-120 0 -221 98 -221 214c0 111 102 211 215 211zM193 477l65 136h115l-108 -136h-72z" />
    <glyph glyph-name="ocircumflex" unicode="&#xf4;" 
d="M252 330c-74 0 -135 -58 -135 -130c0 -68 62 -127 135 -127c71 0 132 61 132 130s-60 127 -132 127zM249 414c117 0 217 -98 217 -211c0 -114 -99 -214 -211 -214c-120 0 -221 98 -221 214c0 111 102 211 215 211zM252 560l-56 -83h-100l106 136h93l110 -136h-100z" />
    <glyph glyph-name="odieresis" unicode="&#xf6;" 
d="M252 330c-74 0 -135 -58 -135 -130c0 -68 62 -127 135 -127c71 0 132 61 132 130s-60 127 -132 127zM249 414c117 0 217 -98 217 -211c0 -114 -99 -214 -211 -214c-120 0 -221 98 -221 214c0 111 102 211 215 211zM152 587c28 0 51 -23 51 -51c0 -29 -23 -52 -51 -52
c-29 0 -52 23 -52 52c0 28 23 51 52 51zM349 587c29 0 52 -23 52 -51c0 -29 -23 -52 -52 -52c-28 0 -51 23 -51 52c0 28 23 51 51 51z" />
    <glyph glyph-name="ograve" unicode="&#xf2;" 
d="M252 330c-74 0 -135 -58 -135 -130c0 -68 62 -127 135 -127c71 0 132 61 132 130s-60 127 -132 127zM249 414c117 0 217 -98 217 -211c0 -114 -99 -214 -211 -214c-120 0 -221 98 -221 214c0 111 102 211 215 211zM311 477h-71l-113 136h118z" />
    <glyph glyph-name="otilde" unicode="&#xf5;" 
d="M252 330c-74 0 -135 -58 -135 -130c0 -68 62 -127 135 -127c71 0 132 61 132 130s-60 127 -132 127zM249 414c117 0 217 -98 217 -211c0 -114 -99 -214 -211 -214c-120 0 -221 98 -221 214c0 111 102 211 215 211zM152 489h-65v6c0 61 42 105 100 105c19 0 46 -8 74 -23
l15 -7c15 -7 27 -11 39 -11c22 0 31 11 35 42h64c-2 -70 -37 -111 -95 -111c-22 0 -45 7 -73 23l-18 10c-17 9 -28 12 -39 12c-22 0 -37 -17 -37 -42v-4z" />
    <glyph glyph-name="scaron" unicode="&#x161;" horiz-adv-x="333" 
d="M300 355l-57 -50c-36 26 -51 32 -76 32c-33 0 -52 -14 -52 -38c0 -20 19 -35 68 -54c85 -33 121 -72 121 -130c0 -68 -64 -126 -139 -126c-58 0 -103 26 -140 79l67 32c21 -21 50 -34 73 -34c35 0 66 22 66 48c0 24 -22 42 -77 63c-82 32 -115 66 -115 120
c0 67 56 117 133 117c40 0 77 -17 128 -59zM175 530l54 83h100l-110 -136h-94l-105 136h100z" />
    <glyph glyph-name="uacute" unicode="&#xfa;" horiz-adv-x="438" 
d="M42 403h85v-227c0 -69 31 -105 92 -105c55 0 89 39 89 105v227h84v-241c0 -101 -73 -173 -175 -173c-105 0 -175 71 -175 176v238zM162 477l65 136h115l-108 -136h-72z" />
    <glyph glyph-name="ucircumflex" unicode="&#xfb;" horiz-adv-x="438" 
d="M42 403h85v-227c0 -69 31 -105 92 -105c55 0 89 39 89 105v227h84v-241c0 -101 -73 -173 -175 -173c-105 0 -175 71 -175 176v238zM221 560l-56 -83h-100l106 136h93l110 -136h-100z" />
    <glyph glyph-name="udieresis" unicode="&#xfc;" horiz-adv-x="438" 
d="M42 403h85v-227c0 -69 31 -105 92 -105c55 0 89 39 89 105v227h84v-241c0 -101 -73 -173 -175 -173c-105 0 -175 71 -175 176v238zM121 587c28 0 51 -23 51 -51c0 -29 -23 -52 -51 -52c-29 0 -52 23 -52 52c0 28 23 51 52 51zM318 587c29 0 52 -23 52 -51
c0 -29 -23 -52 -52 -52c-28 0 -51 23 -51 52c0 28 23 51 51 51z" />
    <glyph glyph-name="ugrave" unicode="&#xf9;" horiz-adv-x="438" 
d="M42 403h85v-227c0 -69 31 -105 92 -105c55 0 89 39 89 105v227h84v-241c0 -101 -73 -173 -175 -173c-105 0 -175 71 -175 176v238zM280 477h-71l-113 136h118z" />
    <glyph glyph-name="yacute" unicode="&#xfd;" 
d="M31 403h96l146 -219l101 219h88l-272 -592h-89l133 288zM193 477l65 136h115l-108 -136h-72z" />
    <glyph glyph-name="ydieresis" unicode="&#xff;" 
d="M31 403h96l146 -219l101 219h88l-272 -592h-89l133 288zM152 587c28 0 51 -23 51 -51c0 -29 -23 -52 -51 -52c-29 0 -52 23 -52 52c0 28 23 51 52 51zM349 587c29 0 52 -23 52 -51c0 -29 -23 -52 -52 -52c-28 0 -51 23 -51 52c0 28 23 51 51 51z" />
    <glyph glyph-name="zcaron" unicode="&#x17e;" horiz-adv-x="438" 
d="M25 403h381l-243 -329h241v-74h-384l245 329h-240v74zM228 530l54 83h100l-110 -136h-94l-105 136h100z" />
    <glyph glyph-name="uni00A0" unicode="&#xa0;" horiz-adv-x="276" 
 />
    <glyph glyph-name="uni00AD" horiz-adv-x="333" 
d="M53 243h227v-83h-227v83z" />
    <glyph glyph-name="uni03A9" horiz-adv-x="710" 
d="M655 0h-234v74c58 52 140 141 140 301c0 148 -73 259 -208 259c-128 0 -213 -108 -213 -260c0 -156 78 -246 141 -300v-74h-234v74h151c-64 51 -153 147 -153 316c0 185 126 322 309 322c193 0 302 -134 302 -320c0 -154 -80 -259 -154 -318h153v-74z" />
    <glyph glyph-name="uni03BC" horiz-adv-x="556" 
d="M487 518v-518h-78v61h-2c-34 -54 -68 -73 -130 -73c-53 0 -84 16 -120 64h-2v-251h-87v717h87v-252c0 -93 8 -130 37 -162c20 -23 50 -37 81 -37c30 0 60 11 80 28c38 33 48 67 48 169v254h86z" />
    <glyph glyph-name="litre" unicode="&#x2113;" horiz-adv-x="493" 
d="M407 51c-28 -28 -74 -65 -133 -65c-39 0 -67 12 -87 34c-26 26 -38 71 -38 121v102c-20 -20 -38 -41 -58 -61l-33 42c30 33 61 65 91 98v225c0 121 51 181 128 181c76 0 101 -63 101 -109c0 -96 -48 -178 -113 -262c-10 -12 -25 -31 -33 -41v-172c0 -67 26 -92 61 -92
c34 0 63 26 84 48c10 -17 20 -33 30 -49zM319 608c0 28 -10 54 -37 54c-31 0 -50 -29 -50 -108v-154c6 7 14 18 19 26c41 59 68 127 68 182z" />
    <glyph glyph-name="estimated" unicode="&#x212e;" horiz-adv-x="661" 
d="M611 290h-447v-200c42 -42 96 -64 158 -64c101 0 165 50 214 131c13 -7 24 -14 37 -22c-60 -89 -129 -147 -251 -147c-173 0 -283 135 -283 302c0 168 108 303 284 303c180 0 283 -135 288 -303zM483 328v161c-42 42 -99 67 -161 67s-116 -22 -158 -65v-163h319z" />
    <glyph glyph-name="Euro" unicode="&#x20ac;" horiz-adv-x="517" 
d="M481 24c-47 -31 -88 -45 -144 -45c-152 0 -242 106 -267 248h-52l18 58h28c-1 17 -1 35 0 52h-42l13 58h36c26 137 114 248 262 248c55 0 100 -17 148 -42v-96c-45 28 -91 50 -145 50c-101 0 -156 -67 -176 -160h277l-14 -58h-271c-1 -9 -1 -19 -1 -28l1 -24h255l-14 -58
h-234c20 -99 80 -158 184 -158c53 0 95 22 138 52v-97z" />
    <glyph glyph-name="infinity" unicode="&#x221e;" horiz-adv-x="783" 
d="M733 294c0 -93 -65 -168 -164 -168c-77 0 -141 48 -180 109h-2c-42 -61 -103 -109 -177 -109c-96 0 -167 65 -167 164c0 101 71 167 165 167c84 0 142 -53 179 -109h2c32 48 92 109 177 109c96 0 167 -66 167 -163zM659 293c0 54 -30 99 -97 99c-59 0 -101 -41 -139 -100
c36 -63 86 -101 139 -101c67 0 97 48 97 102zM353 292c-35 58 -87 100 -140 100c-65 0 -97 -47 -97 -102c0 -57 41 -100 98 -100c58 0 106 48 139 102z" />
    <glyph glyph-name="partialdiff" unicode="&#x2202;" horiz-adv-x="576" 
d="M533 481c0 -59 -8 -126 -24 -192c-39 -148 -131 -300 -280 -300c-109 0 -183 77 -183 191c0 197 134 317 262 317c67 0 113 -34 132 -70h2c2 20 4 41 4 67c0 109 -51 165 -136 165c-31 0 -67 -10 -95 -27c-7 21 -14 42 -21 62c26 17 77 34 129 34c126 0 210 -86 210 -247
zM430 348c-14 47 -51 83 -112 83c-96 0 -183 -112 -183 -255c0 -71 38 -116 96 -116c94 0 168 121 199 288z" />
    <glyph glyph-name="summation" unicode="&#x2211;" horiz-adv-x="631" 
d="M588 -230h-565v44c106 142 212 283 318 425c-99 137 -198 274 -296 411v50h519v-74h-405c92 -129 185 -256 278 -385c-99 -132 -198 -265 -296 -397h447v-74z" />
    <glyph glyph-name="product" unicode="&#x220f;" horiz-adv-x="719" 
d="M636 -230h-91v852h-371v-852h-91v930h553v-930z" />
    <glyph glyph-name="pi" unicode="&#x3c0;" horiz-adv-x="653" 
d="M626 9c-15 -10 -43 -17 -71 -17c-92 0 -123 66 -123 138v302h-189v-297c0 -58 -6 -102 -14 -135h-90c10 40 15 89 15 139v293c-28 0 -70 -10 -96 -23l-24 60c30 17 87 31 145 31h443v-68h-101v-292c0 -48 16 -80 58 -80c10 0 20 4 30 8c6 -19 11 -40 17 -59z" />
    <glyph glyph-name="integral" unicode="&#x222b;" horiz-adv-x="491" 
d="M409 670c-10 4 -27 9 -44 9c-53 0 -80 -35 -80 -97v-637c0 -106 -55 -174 -158 -174c-24 0 -58 6 -73 13c5 22 11 44 17 66c12 -4 26 -8 45 -8c52 0 79 34 79 96v637c0 105 55 174 160 174c27 0 60 -7 73 -14c-7 -22 -13 -44 -19 -65z" />
    <glyph glyph-name="Omega" unicode="&#x2126;" horiz-adv-x="710" 
d="M655 0h-234v74c58 52 140 141 140 301c0 148 -73 259 -208 259c-128 0 -213 -108 -213 -260c0 -156 78 -246 141 -300v-74h-234v74h151c-64 51 -153 147 -153 316c0 185 126 322 309 322c193 0 302 -134 302 -320c0 -154 -80 -259 -154 -318h153v-74z" />
    <glyph glyph-name="radical" unicode="&#x221a;" horiz-adv-x="513" 
d="M519 729c-64 -247 -126 -494 -189 -741h-73c-46 111 -90 222 -135 333l-54 -33c-10 16 -20 33 -30 49c41 26 83 52 124 78c44 -108 87 -215 130 -322c54 212 107 424 161 636h66z" />
    <glyph glyph-name="Delta" unicode="&#x394;" horiz-adv-x="608" 
d="M604 0h-578v43c77 219 155 438 232 657h116c76 -219 153 -438 230 -657v-43zM497 75c-56 161 -112 323 -167 485c-8 24 -12 43 -16 57h-3c-3 -13 -9 -35 -15 -56l-168 -486h369z" />
    <glyph glyph-name="Delta" unicode="&#x2206;" horiz-adv-x="608" 
d="M604 0h-578v43c77 219 155 438 232 657h116c76 -219 153 -438 230 -657v-43zM497 75c-56 161 -112 323 -167 485c-8 24 -12 43 -16 57h-3c-3 -13 -9 -35 -15 -56l-168 -486h369z" />
    <glyph glyph-name="lozenge" unicode="&#x25ca;" horiz-adv-x="559" 
d="M497 350c-68 -117 -135 -233 -203 -350h-45c-68 116 -135 233 -203 349c68 117 135 234 203 351h45c68 -117 135 -233 203 -350zM424 350l-153 264l-153 -264l153 -264z" />
    <glyph glyph-name="notequal" unicode="&#x2260;" horiz-adv-x="667" 
d="M558 154h-262l-64 -132h-69l65 132h-119v64h151l74 153h-225v64h257l67 137h68l-67 -137h124v-64h-156l-74 -153h230v-64z" />
    <glyph glyph-name="lessequal" unicode="&#x2264;" horiz-adv-x="667" 
d="M558 0h-449v64h449v-64zM558 133l-449 201v45l449 201v-70l-348 -152v-2l348 -153v-70z" />
    <glyph glyph-name="greaterequal" unicode="&#x2265;" horiz-adv-x="667" 
d="M558 0h-449v64h449v-64zM558 334l-449 -200v69l349 152v3l-349 153v69l449 -201v-45z" />
    <glyph glyph-name="approxequal" unicode="&#x2248;" horiz-adv-x="667" 
d="M576 421c-33 -47 -75 -85 -140 -85c-39 0 -77 14 -110 34c-28 17 -61 34 -95 34c-39 0 -73 -32 -96 -68l-43 47c33 46 72 85 139 85c42 0 80 -15 109 -33c33 -20 64 -35 96 -35c39 0 72 30 97 67zM576 205c-33 -47 -75 -84 -140 -84c-39 0 -77 13 -110 33
c-28 17 -61 34 -95 34c-39 0 -73 -31 -96 -67l-43 47c33 46 72 84 139 84c42 0 80 -15 109 -33c33 -20 64 -34 96 -34c39 0 72 30 97 67z" />
    <glyph glyph-name="_03A9h" unicode="&#x3a9;" horiz-adv-x="710" 
d="M655 0h-234v74c58 52 140 141 140 301c0 148 -73 259 -208 259c-128 0 -213 -108 -213 -260c0 -156 78 -246 141 -300v-74h-234v74h151c-64 51 -153 147 -153 316c0 185 126 322 309 322c193 0 302 -134 302 -320c0 -154 -80 -259 -154 -318h153v-74z" />
    </font>
</defs>
</svg>
